<svg width="111" height="780" fill="none" xmlns="http://www.w3.org/2000/svg"><path fill-rule="evenodd" clip-rule="evenodd" d="M7.074 5h8.793c.721 0 .983.075 1.247.216.263.141.47.348.611.612.141.263.216.525.216 1.246v8.793c0 .721-.075.983-.216 1.247a1.47 1.47 0 0 1-.611.611c-.264.141-.526.216-1.247.216H7.074c-.721 0-.983-.075-1.246-.216a1.47 1.47 0 0 1-.612-.611C5.076 16.85 5 16.588 5 15.867V7.074c0-.721.075-.983.216-1.246a1.47 1.47 0 0 1 .612-.612C6.09 5.076 6.353 5 7.074 5Z" fill="#EE6C4D"/><path fill-rule="evenodd" clip-rule="evenodd" d="M22.926 25h-8.793c-.721 0-.983-.075-1.247-.216a1.47 1.47 0 0 1-.611-.612c-.141-.263-.216-.525-.216-1.246v-8.793c0-.721.075-.983.216-1.247a1.47 1.47 0 0 1 .611-.611c.264-.141.526-.216 1.247-.216h8.793c.721 0 .983.075 1.246.216.264.14.471.348.612.611.14.264.216.526.216 1.247v8.793c0 .721-.075.983-.216 1.246-.141.264-.348.471-.612.612-.263.14-.525.216-1.246.216Z" fill="#EE6C4D"/><circle cx="15" cy="15" r=".833" fill="#fff"/><path d="m17.784 18.552-.01 2.003a.56.56 0 0 1-.556.557.547.547 0 0 1-.551-.551l.016-3.321a.56.56 0 0 1 .557-.557l3.321-.016a.547.547 0 0 1 .55.55.56.56 0 0 1-.556.557l-2.123.01 3.092 3.093a.498.498 0 0 1-.004.704.498.498 0 0 1-.704.004l-3.032-3.033ZM12.218 11.51l.01-2.003a.56.56 0 0 1 .556-.557.547.547 0 0 1 .55.551l-.016 3.321a.56.56 0 0 1-.556.557l-3.321.016a.547.547 0 0 1-.551-.55.56.56 0 0 1 .556-.557l2.123-.01-3.092-3.093a.498.498 0 0 1 .004-.704.498.498 0 0 1 .704-.004l3.033 3.033Z" fill="#fff"/><path fill-rule="evenodd" clip-rule="evenodd" d="M7.074 30h8.793c.721 0 .983.075 1.247.216.263.141.47.348.611.612.141.263.216.525.216 1.246v8.793c0 .722-.075.983-.216 1.247a1.47 1.47 0 0 1-.611.611c-.264.141-.526.216-1.247.216H7.074c-.721 0-.983-.075-1.246-.216a1.47 1.47 0 0 1-.612-.611C5.076 41.85 5 41.589 5 40.867v-8.793c0-.721.075-.983.216-1.246.141-.264.348-.471.612-.612.263-.14.525-.216 1.246-.216Z" fill="#EE6C4D"/><path fill-rule="evenodd" clip-rule="evenodd" d="M22.926 50h-8.793c-.721 0-.983-.075-1.247-.216a1.47 1.47 0 0 1-.611-.612c-.141-.263-.216-.525-.216-1.246v-8.793c0-.722.075-.983.216-1.247a1.47 1.47 0 0 1 .611-.611c.264-.141.526-.216 1.247-.216h8.793c.721 0 .983.075 1.246.216.264.14.471.348.612.611.14.264.216.525.216 1.247v8.793c0 .721-.075.983-.216 1.246-.141.264-.348.471-.612.612-.263.14-.525.216-1.246.216Z" fill="#EE6C4D"/><circle cx="15" cy="40" r=".833" fill="#fff"/><path d="m20.551 44.843.01-2.003a.56.56 0 0 1 .556-.557.547.547 0 0 1 .551.551l-.016 3.322a.56.56 0 0 1-.557.556l-3.321.017a.547.547 0 0 1-.55-.551.56.56 0 0 1 .555-.556l2.124-.011-3.092-3.092a.498.498 0 0 1 .003-.704.498.498 0 0 1 .705-.005l3.032 3.033ZM9.45 35.219l-.01 2.003a.56.56 0 0 1-.556.556.547.547 0 0 1-.55-.55l.016-3.322a.56.56 0 0 1 .556-.556l3.322-.017a.547.547 0 0 1 .55.551.56.56 0 0 1-.556.556l-2.123.011 3.092 3.092a.498.498 0 0 1-.004.705.498.498 0 0 1-.704.004l-3.032-3.033Z" fill="#fff"/><g fill-rule="evenodd" clip-rule="evenodd"><path d="M8.205 80h13.59c1.114 0 1.519.116 1.926.334.407.218.727.537.945.945.218.407.334.812.334 1.926v13.59c0 1.114-.116 1.519-.334 1.926a2.272 2.272 0 0 1-.945.945c-.407.218-.811.334-1.926.334H8.205c-1.115 0-1.519-.116-1.926-.334a2.272 2.272 0 0 1-.945-.945C5.116 98.314 5 97.91 5 96.795v-13.59c0-1.114.116-1.519.334-1.926.218-.407.538-.727.945-.945.407-.218.811-.334 1.926-.334Z" fill="#EE6C4D"/><path d="m17.544 84.28 4.5 4.501a.389.389 0 0 1 0 .55l-4.5 4.501a.389.389 0 0 1-.664-.275V91.31c-3.885 0-6.604 1.244-8.547 3.963.777-3.885 3.108-7.77 8.547-8.547v-2.17a.388.388 0 0 1 .664-.275Z" fill="#fff"/></g><path fill-rule="evenodd" clip-rule="evenodd" d="M8.205 130h13.59c1.114 0 1.519.116 1.926.334.407.218.727.538.945.945.218.407.334.811.334 1.926v13.59c0 1.115-.116 1.519-.334 1.926a2.275 2.275 0 0 1-.945.945c-.407.218-.811.334-1.926.334H8.205c-1.115 0-1.519-.116-1.926-.334a2.275 2.275 0 0 1-.945-.945c-.218-.407-.334-.811-.334-1.926v-13.59c0-1.115.116-1.519.334-1.926.218-.407.538-.727.945-.945.407-.218.811-.334 1.926-.334Z" fill="#8FBC5D"/><circle cx="15" cy="140" r=".833" fill="#fff"/><path d="m17.784 143.552-.01 2.003a.561.561 0 0 1-.556.557.547.547 0 0 1-.551-.551l.016-3.321a.561.561 0 0 1 .557-.557l3.321-.016a.546.546 0 0 1 .55.55.561.561 0 0 1-.556.557l-2.123.01 3.092 3.093a.498.498 0 0 1-.004.704.499.499 0 0 1-.704.004l-3.032-3.033ZM12.218 136.51l.01-2.003a.561.561 0 0 1 .556-.557.547.547 0 0 1 .55.551l-.016 3.321a.561.561 0 0 1-.556.557l-3.321.016a.546.546 0 0 1-.551-.55.561.561 0 0 1 .556-.557l2.123-.01-3.092-3.093a.498.498 0 0 1 .004-.704.499.499 0 0 1 .704-.004l3.033 3.033ZM12.218 143.552l.01 2.003c.001.306.25.555.556.557a.547.547 0 0 0 .55-.551l-.016-3.321a.561.561 0 0 0-.556-.557l-3.321-.016a.546.546 0 0 0-.551.55c.001.306.25.555.556.557l2.123.01-3.092 3.093a.498.498 0 0 0 .004.704c.196.195.51.197.704.004l3.033-3.033ZM17.784 136.51l-.01-2.003a.561.561 0 0 0-.557-.557.547.547 0 0 0-.55.551l.016 3.321c.002.306.251.555.557.557l3.321.016a.546.546 0 0 0 .55-.55.561.561 0 0 0-.556-.557l-2.123-.01 3.092-3.093a.498.498 0 0 0-.004-.704.499.499 0 0 0-.704-.004l-3.032 3.033Z" fill="#fff"/><g fill-rule="evenodd" clip-rule="evenodd"><path d="M8.205 155h13.59c1.114 0 1.519.116 1.926.334.407.218.727.538.945.945.218.407.334.811.334 1.926v13.59c0 1.115-.116 1.519-.334 1.926a2.275 2.275 0 0 1-.945.945c-.407.218-.811.334-1.926.334H8.205c-1.115 0-1.519-.116-1.926-.334a2.275 2.275 0 0 1-.945-.945c-.218-.407-.334-.811-.334-1.926v-13.59c0-1.115.116-1.519.334-1.926.218-.407.538-.727.945-.945.407-.218.811-.334 1.926-.334Z" fill="#8FBC5D"/><path d="M13.327 165.945c.048.04.072.098.072.157a.202.202 0 0 1-.047.13l-2.624 3.161a.202.202 0 0 1-.358-.131c0-.046.016-.092.047-.13l2.625-3.161a.202.202 0 0 1 .285-.026Zm.852.718c.048.04.072.098.072.156a.2.2 0 0 1-.046.13l-2.625 3.161a.202.202 0 0 1-.357-.131c0-.045.015-.092.046-.13l2.625-3.161a.202.202 0 0 1 .285-.025Zm-4.327 2.123a1.104 1.104 0 0 0 .137 1.543l.496.417c.459.387 1.149.325 1.533-.138l2.782-3.35L12.996 165l-3.144 3.786ZM18.303 161.375c.145-.173.323-.316.529-.424l.124-.065c.156-.082.29-.19.4-.321l.414-.498c.055-.065.032-.175-.051-.245l-.677-.567c-.083-.07-.195-.074-.25-.008l-.415.498c-.11.131-.191.283-.244.451l-.041.134c-.07.222-.179.424-.323.597l-2.169 2.601.515.472 2.188-2.625Z" fill="#fff"/><path d="M19.535 170.03a.724.724 0 0 1-1.026-.038.731.731 0 0 1 .038-1.03.724.724 0 0 1 1.026.038.731.731 0 0 1-.038 1.03Zm-4.899-6.631a1.49 1.49 0 0 1-.463-1.327 2.416 2.416 0 0 0-.611-2.038 2.396 2.396 0 0 0-1.938-.763.15.15 0 0 0-.099.253l1.097 1.185a.582.582 0 0 1-.03.82l-.996.931a.578.578 0 0 1-.818-.03l-1.095-1.182a.15.15 0 0 0-.258.082c-.102.71.108 1.459.635 2.014.52.547 1.236.796 1.935.74.493-.04.974.174 1.285.561l4.718 5.887c.55.593 1.482.627 2.072.076.591-.551.625-1.488.076-2.081l-5.51-5.128Z" fill="#fff"/></g><path fill-rule="evenodd" clip-rule="evenodd" d="M22.926 225h-8.793c-.721 0-.983-.075-1.247-.216a1.47 1.47 0 0 1-.611-.612c-.141-.263-.216-.525-.216-1.246v-8.793c0-.722.075-.983.216-1.247.14-.263.348-.47.611-.611.264-.141.526-.216 1.247-.216h8.793c.721 0 .983.075 1.246.216.264.141.471.348.612.611.14.264.216.525.216 1.247v8.793c0 .721-.075.983-.216 1.246-.141.264-.348.471-.612.612-.263.141-.525.216-1.246.216Z" fill="#5F83C6"/><path fill-rule="evenodd" clip-rule="evenodd" d="M7.074 205h8.793c.721 0 .983.075 1.247.216.263.141.47.348.611.612.141.263.216.525.216 1.246v8.793c0 .722-.075.983-.216 1.247-.14.263-.348.47-.611.611-.264.141-.526.216-1.247.216H7.074c-.721 0-.983-.075-1.246-.216a1.472 1.472 0 0 1-.612-.611c-.14-.264-.216-.525-.216-1.247v-8.793c0-.721.075-.983.216-1.246.141-.264.348-.471.612-.612.263-.141.525-.216 1.246-.216Z" fill="#DCE5FA"/><path d="m22.218 221.51.01-2.003a.561.561 0 0 1 .556-.557.547.547 0 0 1 .55.551l-.016 3.321a.561.561 0 0 1-.556.557l-3.321.016a.546.546 0 0 1-.551-.55.561.561 0 0 1 .556-.557l2.123-.01-3.092-3.093a.498.498 0 0 1 .004-.704.499.499 0 0 1 .704-.004l3.033 3.033Z" fill="#fff"/><path d="M13.54 208.334h1.252L13.548 215h-1.309l-.017-.092-.734-4.023-.771 4.115H9.361l-1.237-6.667h1.338l.014.096.623 4.168.822-4.264h1.27l.017.093.713 4.139.617-4.231Z" fill="#295795"/><path fill-rule="evenodd" clip-rule="evenodd" d="M22.926 275h-8.793c-.721 0-.983-.075-1.247-.216a1.47 1.47 0 0 1-.611-.612c-.141-.263-.216-.525-.216-1.246v-8.793c0-.722.075-.983.216-1.247.14-.263.348-.47.611-.611.264-.141.526-.216 1.247-.216h8.793c.721 0 .983.075 1.246.216.264.141.471.348.612.611.14.264.216.525.216 1.247v8.793c0 .721-.075.983-.216 1.246-.141.264-.348.471-.612.612-.263.141-.525.216-1.246.216Z" fill="#5EA162"/><path fill-rule="evenodd" clip-rule="evenodd" d="M7.074 255h8.793c.721 0 .983.075 1.247.216.263.141.47.348.611.612.141.263.216.525.216 1.246v8.793c0 .722-.075.983-.216 1.247-.14.263-.348.47-.611.611-.264.141-.526.216-1.247.216H7.074c-.721 0-.983-.075-1.246-.216a1.472 1.472 0 0 1-.612-.611c-.14-.264-.216-.525-.216-1.247v-8.793c0-.721.075-.983.216-1.246.141-.264.348-.471.612-.612.263-.141.525-.216 1.246-.216Z" fill="#C2E5C3"/><path d="m22.218 271.51.01-2.003a.561.561 0 0 1 .556-.557.547.547 0 0 1 .55.551l-.016 3.321a.561.561 0 0 1-.556.557l-3.321.016a.546.546 0 0 1-.551-.55.561.561 0 0 1 .556-.557l2.123-.01-3.092-3.093a.498.498 0 0 1 .004-.704.499.499 0 0 1 .704-.004l3.033 3.033Z" fill="#fff"/><path fill-rule="evenodd" clip-rule="evenodd" d="m12.517 264.792-.929-2.171a2.243 2.243 0 0 1-.11-.446h-.014a3.954 3.954 0 0 1-.124.465l-.933 2.152H8.958l1.72-3.333-1.573-3.334h1.479l.77 1.999c.06.158.115.346.163.563h.014c.03-.13.086-.324.17-.581l.857-1.98h1.355l-1.618 3.305 1.663 3.361h-1.44Z" fill="#2E7237"/><path fill-rule="evenodd" clip-rule="evenodd" d="M22.926 250h-8.793c-.721 0-.983-.075-1.247-.216a1.47 1.47 0 0 1-.611-.612c-.141-.263-.216-.525-.216-1.246v-8.793c0-.722.075-.983.216-1.247.14-.263.348-.47.611-.611.264-.141.526-.216 1.247-.216h8.793c.721 0 .983.075 1.246.216.264.141.471.348.612.611.14.264.216.525.216 1.247v8.793c0 .721-.075.983-.216 1.246-.141.264-.348.471-.612.612-.263.141-.525.216-1.246.216Z" fill="#FF7651"/><path fill-rule="evenodd" clip-rule="evenodd" d="M7.074 230h8.793c.721 0 .983.075 1.247.216.263.141.47.348.611.612.141.263.216.525.216 1.246v8.793c0 .722-.075.983-.216 1.247-.14.263-.348.47-.611.611-.264.141-.526.216-1.247.216H7.074c-.721 0-.983-.075-1.246-.216a1.472 1.472 0 0 1-.612-.611c-.14-.264-.216-.525-.216-1.247v-8.793c0-.721.075-.983.216-1.246.141-.264.348-.471.612-.612.263-.141.525-.216 1.246-.216Z" fill="#F3D9CC"/><path d="m22.218 246.51.01-2.003a.561.561 0 0 1 .556-.557.547.547 0 0 1 .55.551l-.016 3.321a.561.561 0 0 1-.556.557l-3.321.016a.546.546 0 0 1-.551-.55.561.561 0 0 1 .556-.557l2.123-.01-3.092-3.093a.498.498 0 0 1 .004-.704.499.499 0 0 1 .704-.004l3.033 3.033Z" fill="#fff"/><path fill-rule="evenodd" clip-rule="evenodd" d="M11.48 237.495c.69 0 1.24-.207 1.652-.62.412-.414.618-.956.618-1.625 0-1.417-.718-2.125-2.155-2.125H9.583v6.667h1.284v-2.297h.613Zm-.57-3.221h.5c.676 0 1.015.341 1.014 1.023 0 .698-.338 1.046-1.015 1.046h-.5v-2.069Z" fill="#D04526"/><path fill-rule="evenodd" clip-rule="evenodd" d="M7.074 305h8.793c.721 0 .983.075 1.247.216.263.141.47.348.611.612.141.263.216.525.216 1.246v8.793c0 .722-.075.983-.216 1.247-.14.263-.348.47-.611.611-.264.141-.526.216-1.247.216H7.074c-.721 0-.983-.075-1.246-.216a1.472 1.472 0 0 1-.612-.611c-.14-.264-.216-.525-.216-1.247v-8.793c0-.721.075-.983.216-1.246.141-.264.348-.471.612-.612.263-.141.525-.216 1.246-.216Z" fill="#DCE5FA"/><path fill-rule="evenodd" clip-rule="evenodd" d="M22.926 325h-8.793c-.721 0-.983-.075-1.247-.216a1.47 1.47 0 0 1-.611-.612c-.141-.263-.216-.525-.216-1.246v-8.793c0-.722.075-.983.216-1.247.14-.263.348-.47.611-.611.264-.141.526-.216 1.247-.216h8.793c.721 0 .983.075 1.246.216.264.141.471.348.612.611.14.264.216.525.216 1.247v8.793c0 .721-.075.983-.216 1.246-.141.264-.348.471-.612.612-.263.141-.525.216-1.246.216Z" fill="#5F83C6"/><path d="m10.551 309.843.01-2.003a.56.56 0 0 1 .556-.556.546.546 0 0 1 .551.55l-.016 3.322a.56.56 0 0 1-.557.556l-3.321.017a.547.547 0 0 1-.55-.551.56.56 0 0 1 .555-.556l2.124-.011-3.093-3.092a.499.499 0 0 1 .004-.705.498.498 0 0 1 .705-.003l3.032 3.032Z" fill="#295795"/><path d="M20.83 315.417h1.253l-1.244 6.666h-1.308l-.017-.092-.735-4.022-.77 4.114h-1.355l-1.237-6.666h1.337l.015.095.622 4.168.823-4.263h1.27l.016.093.713 4.139.618-4.232Z" fill="#fff"/><path fill-rule="evenodd" clip-rule="evenodd" d="M7.074 330h8.793c.721 0 .983.075 1.247.216.263.141.47.348.611.612.141.263.216.525.216 1.246v8.793c0 .722-.075.983-.216 1.247-.14.263-.348.47-.611.611-.264.141-.526.216-1.247.216H7.074c-.721 0-.983-.075-1.246-.216a1.472 1.472 0 0 1-.612-.611c-.14-.264-.216-.525-.216-1.247v-8.793c0-.721.075-.983.216-1.246.141-.264.348-.471.612-.612.263-.141.525-.216 1.246-.216Z" fill="#F3D9CC"/><path fill-rule="evenodd" clip-rule="evenodd" d="M22.926 350h-8.793c-.721 0-.983-.075-1.247-.216a1.47 1.47 0 0 1-.611-.612c-.141-.263-.216-.525-.216-1.246v-8.793c0-.722.075-.983.216-1.247.14-.263.348-.47.611-.611.264-.141.526-.216 1.247-.216h8.793c.721 0 .983.075 1.246.216.264.141.471.348.612.611.14.264.216.525.216 1.247v8.793c0 .721-.075.983-.216 1.246-.141.264-.348.471-.612.612-.263.141-.525.216-1.246.216Z" fill="#FF7651"/><path d="m10.551 334.843.01-2.003a.56.56 0 0 1 .556-.556.546.546 0 0 1 .551.55l-.016 3.322a.56.56 0 0 1-.557.556l-3.321.017a.547.547 0 0 1-.55-.551.56.56 0 0 1 .555-.556l2.124-.011-3.093-3.092a.499.499 0 0 1 .004-.705.498.498 0 0 1 .705-.003l3.032 3.032Z" fill="#D04526"/><path fill-rule="evenodd" clip-rule="evenodd" d="M18.772 344.787c.69 0 1.24-.207 1.652-.621.412-.414.618-.956.618-1.625 0-1.416-.718-2.124-2.155-2.124h-2.012v6.666h1.284v-2.296h.613Zm-.571-3.221h.5c.677 0 1.015.341 1.015 1.023 0 .698-.338 1.046-1.015 1.046h-.5v-2.069Z" fill="#fff"/><path fill-rule="evenodd" clip-rule="evenodd" d="M7.074 355h8.793c.721 0 .983.075 1.247.216.263.141.47.348.611.612.141.263.216.525.216 1.246v8.793c0 .722-.075.983-.216 1.247-.14.263-.348.47-.611.611-.264.141-.526.216-1.247.216H7.074c-.721 0-.983-.075-1.246-.216a1.472 1.472 0 0 1-.612-.611c-.14-.264-.216-.525-.216-1.247v-8.793c0-.721.075-.983.216-1.246.141-.264.348-.471.612-.612.263-.141.525-.216 1.246-.216Z" fill="#C2E5C3"/><path fill-rule="evenodd" clip-rule="evenodd" d="M22.926 375h-8.793c-.721 0-.983-.075-1.247-.216a1.47 1.47 0 0 1-.611-.612c-.141-.263-.216-.525-.216-1.246v-8.793c0-.722.075-.983.216-1.247.14-.263.348-.47.611-.611.264-.141.526-.216 1.247-.216h8.793c.721 0 .983.075 1.246.216.264.141.471.348.612.611.14.264.216.525.216 1.247v8.793c0 .721-.075.983-.216 1.246-.141.264-.348.471-.612.612-.263.141-.525.216-1.246.216Z" fill="#5EA162"/><path d="m10.551 359.843.01-2.003a.56.56 0 0 1 .556-.556.546.546 0 0 1 .551.55l-.016 3.322a.56.56 0 0 1-.557.556l-3.321.017a.547.547 0 0 1-.55-.551.56.56 0 0 1 .555-.556l2.124-.011-3.093-3.092a.499.499 0 0 1 .004-.705.498.498 0 0 1 .705-.003l3.032 3.032Z" fill="#2E7237"/><path fill-rule="evenodd" clip-rule="evenodd" d="m19.809 372.083-.93-2.17a2.264 2.264 0 0 1-.109-.447h-.014a3.917 3.917 0 0 1-.124.465l-.933 2.152H16.25l1.72-3.333-1.573-3.333h1.478l.771 1.999c.06.158.115.345.162.563h.015c.03-.131.086-.324.17-.581l.857-1.981h1.355l-1.618 3.306 1.663 3.36h-1.441Z" fill="#fff"/><path fill-rule="evenodd" clip-rule="evenodd" d="M8.205 430h13.59c1.114 0 1.519.116 1.926.334.407.218.727.538.945.945.218.407.334.811.334 1.926v13.59c0 1.115-.116 1.519-.334 1.926a2.275 2.275 0 0 1-.945.945c-.407.218-.811.334-1.926.334H8.205c-1.115 0-1.519-.116-1.926-.334a2.275 2.275 0 0 1-.945-.945c-.218-.407-.334-.811-.334-1.926v-13.59c0-1.115.116-1.519.334-1.926.218-.407.538-.727.945-.945.407-.218.811-.334 1.926-.334Z" fill="#AB6993"/><path d="M14.082 439.01c0 .344-.437 1.208-.843 1.866a.268.268 0 0 0-.032.209c.031.111.13.188.244.188h3.098a.253.253 0 0 0 .227-.142.26.26 0 0 0-.023-.269c-.578-.788-.835-1.36-.835-1.852 0-.493.257-1.064.837-1.857.265-.374.405-.816.405-1.277 0-1.208-.969-2.191-2.16-2.191-1.191 0-2.16.983-2.16 2.191 0 .461.14.903.408 1.281.577.789.834 1.36.834 1.853ZM19.689 441.632H10.31a.255.255 0 0 0-.254.257v2.587c0 .142.114.257.254.257h9.378c.14 0 .253-.115.253-.257v-2.587a.255.255 0 0 0-.253-.257ZM18.254 445.109h-6.508a.256.256 0 0 0-.254.258v.291c0 .142.114.258.254.258h6.508c.14 0 .254-.116.254-.258v-.291a.256.256 0 0 0-.254-.258Z" fill="#fff"/><g fill-rule="evenodd" clip-rule="evenodd"><path d="M8.205 380h13.59c1.114 0 1.519.116 1.926.334.407.218.727.538.945.945.218.407.334.811.334 1.926v13.59c0 1.115-.116 1.519-.334 1.926a2.275 2.275 0 0 1-.945.945c-.407.218-.811.334-1.926.334H8.205c-1.115 0-1.519-.116-1.926-.334a2.275 2.275 0 0 1-.945-.945c-.218-.407-.334-.811-.334-1.926v-13.59c0-1.115.116-1.519.334-1.926.218-.407.538-.727.945-.945.407-.218.811-.334 1.926-.334Z" fill="#AB6993"/><path d="M14.906 385.736a.5.5 0 0 0-.56-.432c-2.634.338-4.646 2.569-4.646 5.247a5.287 5.287 0 0 0 3.314 4.897.5.5 0 0 0 .377-.926 4.287 4.287 0 0 1-2.691-3.971c0-2.17 1.633-3.981 3.774-4.255a.5.5 0 0 0 .432-.56Zm4.927 4.709a.5.5 0 0 0 .424-.566 5.64 5.64 0 0 0-.44-1.536.5.5 0 0 0-.912.412c.178.394.298.814.362 1.265a.5.5 0 0 0 .566.425Zm-4.15 5.352a.5.5 0 0 1-.141-.99c.44-.063.85-.178 1.236-.348a.5.5 0 1 1 .405.914c-.472.209-.97.349-1.5.424Zm2.817-1.899a.5.5 0 0 0 .7-.1c.34-.454.604-.916.785-1.389a.5.5 0 1 0-.934-.357 4.766 4.766 0 0 1-.65 1.146.5.5 0 0 0 .1.7Z" fill="#fff"/><path d="M14.713 388.4a.315.315 0 0 1-.313-.312v-4.375c0-.171.142-.313.313-.313a.31.31 0 0 1 .22.093l2.187 2.187a.312.312 0 0 1 .092.22.312.312 0 0 1-.092.22l-2.188 2.187a.31.31 0 0 1-.22.093Z" fill="#fff"/></g><g fill-rule="evenodd" clip-rule="evenodd"><path d="M17.139 415.638h6.36c.523 0 .712.055.902.157.191.102.34.251.443.442.102.191.156.38.156.901v6.362c0 .521-.054.711-.156.901a1.063 1.063 0 0 1-.443.443c-.19.102-.38.156-.901.156h-6.361c-.522 0-.711-.054-.902-.156a1.063 1.063 0 0 1-.442-.443c-.102-.19-.157-.38-.157-.901v-6.362c0-.521.055-.71.157-.901.102-.191.251-.34.442-.442.19-.102.38-.157.902-.157ZM17.139 405h6.36c.523 0 .712.054.902.156.191.102.34.252.443.443.102.19.156.38.156.901v6.362c0 .521-.054.71-.156.901a1.06 1.06 0 0 1-.443.442c-.19.102-.38.157-.901.157h-6.361c-.522 0-.711-.055-.902-.157a1.061 1.061 0 0 1-.442-.442c-.102-.191-.157-.38-.157-.901V406.5c0-.521.055-.711.157-.901.102-.191.251-.341.442-.443.19-.102.38-.156.902-.156ZM6.5 415.638h6.362c.521 0 .71.055.901.157.19.102.34.251.442.442.102.191.157.38.157.901v6.362c0 .521-.055.711-.157.901a1.063 1.063 0 0 1-.442.443c-.19.102-.38.156-.901.156H6.5c-.521 0-.71-.054-.901-.156a1.063 1.063 0 0 1-.443-.443c-.102-.19-.156-.38-.156-.901v-6.362c0-.521.054-.71.156-.901a1.06 1.06 0 0 1 .443-.442c.19-.102.38-.157.901-.157ZM6.5 405h6.362c.521 0 .71.054.901.156.19.102.34.252.442.443.102.19.157.38.157.901v6.362c0 .521-.055.71-.157.901-.102.191-.251.34-.442.442-.19.102-.38.157-.901.157H6.5c-.521 0-.71-.055-.901-.157a1.06 1.06 0 0 1-.443-.442c-.102-.191-.156-.38-.156-.901V406.5c0-.521.054-.711.156-.901.102-.191.252-.341.443-.443.19-.102.38-.156.901-.156Z" fill="#AB6993"/><path d="M9.4 411.071v-2.102h-.714c-.182 0-.282-.066-.282-.293 0-.205.11-.26.399-.315l.204-.044c.614-.133.443-.764.913-.764.177 0 .32.078.32.376v3.142c0 .288-.11.487-.42.487s-.42-.199-.42-.487ZM19.743 410.789h1.66c.21 0 .364.1.364.349 0 .249-.155.348-.41.348h-2.074c-.32 0-.453-.215-.453-.409 0-.393.348-.83 1.04-1.267.769-.487 1.034-.586 1.034-1.034 0-.36-.276-.559-.58-.559-.355 0-.593.144-.714.586-.055.205-.127.31-.349.31-.226 0-.404-.094-.404-.37 0-.675.664-1.19 1.477-1.19.886 0 1.411.581 1.411 1.09 0 .736-.337 1.023-.924 1.355-.625.354-1.007.581-1.078.791ZM8.191 421.452c0-.226.166-.387.393-.387.493 0 .227.681.99.681.415 0 .637-.255.637-.598 0-.265-.117-.459-.498-.498-.155-.016-.46-.044-.46-.299 0-.287.167-.348.482-.365.277-.016.42-.177.42-.431 0-.332-.26-.487-.553-.487-.67 0-.514.631-.951.631-.188 0-.371-.083-.371-.332 0-.675.802-.963 1.339-.963.957 0 1.31.537 1.31 1.073 0 .354-.16.609-.47.775.415.116.593.448.593.863 0 .874-.675 1.294-1.494 1.294-1.04 0-1.367-.647-1.367-.957ZM20.426 420.822v-1.433h-.011l-1.068 1.433h1.079Zm0 1.2v-.57h-1.389c-.287 0-.42-.204-.42-.381 0-.144.033-.233.105-.327l1.704-2.185c.083-.11.205-.155.36-.155.298 0 .414.161.414.399v2.019h.277c.188 0 .31.132.31.315s-.122.315-.31.315H21.2v.57c0 .232-.1.387-.387.387-.287 0-.387-.155-.387-.387Z" fill="#fff"/></g><g fill-rule="evenodd" clip-rule="evenodd"><path d="M8.205 455h13.59c1.114 0 1.519.116 1.926.334.407.218.727.538.945.945.218.407.334.811.334 1.926v13.59c0 1.115-.116 1.519-.334 1.926a2.275 2.275 0 0 1-.945.945c-.407.218-.811.334-1.926.334H8.205c-1.115 0-1.519-.116-1.926-.334a2.275 2.275 0 0 1-.945-.945c-.218-.407-.334-.811-.334-1.926v-13.59c0-1.115.116-1.519.334-1.926.218-.407.538-.727.945-.945.407-.218.811-.334 1.926-.334Z" fill="#4A7AAB"/><path d="M13.052 463.831h6.07c.153 0 .278.125.278.279v5.905a.278.278 0 0 1-.279.278H10.88a.278.278 0 0 1-.279-.278v-5.905c0-.154.125-.279.279-.279h1.116c-.005-2.001.006-2.141.01-2.186.058-.719.436-1.44 1.01-1.926a2.996 2.996 0 0 1 1.987-.719h.037c.084.001.17.005.256.012 1.427.115 2.616 1.291 2.705 2.678.008.121.006.221.001.419v.02c-.003.116-.007.271-.01.488a.528.528 0 1 1-1.056-.015l.009-.435.001-.082.002-.063c.003-.124.004-.19 0-.264-.057-.876-.82-1.62-1.737-1.693a2.253 2.253 0 0 0-.182-.009 1.953 1.953 0 0 0-1.33.469c-.365.309-.604.76-.64 1.206-.005.085-.01.686-.006 2.1Zm1.265 4.781h1.366l-.208-1.694a.767.767 0 0 0 .332-.628c0-.429-.362-.777-.807-.777-.445 0-.806.348-.806.777 0 .258.13.487.331.628l-.208 1.694Z" fill="#fff"/></g><g fill-rule="evenodd" clip-rule="evenodd"><path d="M8.205 480h13.59c1.114 0 1.519.116 1.926.334.407.218.727.538.945.945.218.407.334.811.334 1.926v13.59c0 1.115-.116 1.519-.334 1.926a2.275 2.275 0 0 1-.945.945c-.407.218-.811.334-1.926.334H8.205c-1.115 0-1.519-.116-1.926-.334a2.275 2.275 0 0 1-.945-.945c-.218-.407-.334-.811-.334-1.926v-13.59c0-1.115.116-1.519.334-1.926.218-.407.538-.727.945-.945.407-.218.811-.334 1.926-.334Z" fill="#4A7AAB"/><path d="M15.138 483.501a.587.587 0 0 0-.476 0l-5.03 2.236a.584.584 0 0 0-.348.534v3.355c0 3.38 2.337 6.51 5.477 7.276a.567.567 0 0 0 .278 0c3.14-.766 5.477-3.896 5.477-7.276v-3.355a.584.584 0 0 0-.347-.534l-5.031-2.236Zm-4.684 3.151 4.446-1.976 4.446 1.976v2.974c0 2.801-1.91 5.409-4.446 6.104-2.536-.695-4.446-3.303-4.446-6.104v-2.974Z" fill="#fff"/><path d="M15.693 492.107h-1.805l.276-2.237a1.014 1.014 0 0 1-.439-.83c0-.567.477-1.026 1.066-1.026.588 0 1.065.459 1.065 1.026 0 .341-.172.643-.438.83l.275 2.237Z" fill="#fff"/></g><path fill-rule="evenodd" clip-rule="evenodd" d="M17.61 116.2h5.98c.49 0 .668.051.847.147.18.096.32.236.416.416.096.179.147.357.147.847v5.98c0 .49-.051.668-.147.847a.997.997 0 0 1-.416.416c-.179.096-.357.147-.847.147h-5.98c-.49 0-.668-.051-.847-.147a.997.997 0 0 1-.416-.416c-.096-.179-.147-.357-.147-.847v-5.98c0-.49.051-.668.147-.847a.997.997 0 0 1 .416-.416c.179-.096.357-.147.847-.147Z" fill="#F5C5B3"/><path fill-rule="evenodd" clip-rule="evenodd" d="M6.41 105h5.98c.49 0 .668.051.847.147.18.096.32.236.416.416.096.179.147.357.147.847v17.18c0 .49-.051.668-.147.847a.997.997 0 0 1-.416.416c-.179.096-.357.147-.847.147H6.41c-.49 0-.668-.051-.847-.147a.997.997 0 0 1-.416-.416c-.096-.179-.147-.357-.147-.847v-17.18c0-.49.051-.668.147-.847a.997.997 0 0 1 .416-.416c.179-.096.357-.147.847-.147Z" fill="#EE6C4D"/><path fill-rule="evenodd" clip-rule="evenodd" d="M17.61 105h5.98c.49 0 .668.051.847.147.18.096.32.236.416.416.096.179.147.357.147.847v5.98c0 .49-.051.668-.147.847a.997.997 0 0 1-.416.416c-.179.096-.357.147-.847.147h-5.98c-.49 0-.668-.051-.847-.147a.997.997 0 0 1-.416-.416c-.096-.179-.147-.357-.147-.847v-5.98c0-.49.051-.668.147-.847a.997.997 0 0 1 .416-.416c.179-.096.357-.147.847-.147Z" fill="#F5C5B3"/><path fill-rule="evenodd" clip-rule="evenodd" d="m19.079 110.549 1.045-2.708c.07-.178.197-.241.395-.241h.192c.182 0 .345.043.434.29l.976 2.659c.03.077.079.217.079.304 0 .193-.173.347-.38.347-.177 0-.305-.063-.364-.217l-.208-.579h-1.301l-.212.579c-.055.154-.168.217-.36.217-.222 0-.375-.135-.375-.347 0-.087.05-.227.079-.304Zm1.992-.695-.459-1.395h-.01l-.478 1.395h.947ZM19.2 121.747v-2.494c0-.344.177-.453.447-.453h1.014c.558 0 1.223.128 1.223.878a.726.726 0 0 1-.47.69v.009c.353.095.586.35.586.817 0 .713-.572 1.006-1.233 1.006h-1.12c-.27 0-.447-.109-.447-.453Zm.763-1.058v.916h.642c.297 0 .632-.061.632-.453 0-.411-.353-.463-.725-.463h-.55Zm0-1.322v.831h.628c.358 0 .53-.147.53-.416 0-.326-.27-.415-.554-.415h-.604Z" fill="#B63C23"/><path d="m9.4 110.634 1.815 1.83a.34.34 0 0 0 .485 0 .348.348 0 0 0 0-.489l-2.058-2.074a.34.34 0 0 0-.484 0L7.1 111.975a.348.348 0 0 0 0 .489.34.34 0 0 0 .485 0l1.815-1.83ZM9.4 119.334l1.815-1.83a.34.34 0 0 1 .485 0 .348.348 0 0 1 0 .489l-2.058 2.074a.34.34 0 0 1-.484 0L7.1 117.993a.348.348 0 0 1 0-.489.34.34 0 0 1 .485 0l1.815 1.83Z" fill="#fff"/><ellipse cx="9.4" cy="114.984" rx="1.029" ry="1.037" fill="#fff"/><path fill-rule="evenodd" clip-rule="evenodd" d="M62.499 146H55.5a.458.458 0 0 0-.352.164.565.565 0 0 0-.148.391.563.563 0 0 0 .148.391l3.5 3.888a.46.46 0 0 0 .351.166.46.46 0 0 0 .352-.166l3.5-3.888a.562.562 0 0 0 .149-.391.565.565 0 0 0-.149-.391.458.458 0 0 0-.352-.164Z" fill="#161616"/><path fill-rule="evenodd" clip-rule="evenodd" d="M62.499 156H55.5a.458.458 0 0 0-.352.164.565.565 0 0 0-.148.391.563.563 0 0 0 .148.391l3.5 3.888a.46.46 0 0 0 .351.166.46.46 0 0 0 .352-.166l3.5-3.888a.562.562 0 0 0 .149-.391.565.565 0 0 0-.149-.391.458.458 0 0 0-.352-.164Z" fill="#fff"/><path fill-rule="evenodd" clip-rule="evenodd" d="M62.499 166H55.5a.458.458 0 0 0-.352.164.565.565 0 0 0-.148.391.563.563 0 0 0 .148.391l3.5 3.888a.46.46 0 0 0 .351.166.46.46 0 0 0 .352-.166l3.5-3.888a.562.562 0 0 0 .149-.391.565.565 0 0 0-.149-.391.458.458 0 0 0-.352-.164Z" fill="#E5322D"/><g clip-path="url(#a)" fill-rule="evenodd" clip-rule="evenodd" fill="#161616"><path d="M55 14a1 1 0 0 0 1 1h22a1 1 0 1 0 0-2H56a1 1 0 0 0-1 1ZM55 6a1 1 0 0 0 1 1h22a1 1 0 1 0 0-2H56a1 1 0 0 0-1 1ZM55 22a1 1 0 0 0 1 1h22a1 1 0 1 0 0-2H56a1 1 0 0 0-1 1Z"/></g><path opacity=".87" fill-rule="evenodd" clip-rule="evenodd" d="M64 267c-4.968 0-9 4.032-9 9s4.032 9 9 9 9-4.032 9-9-4.032-9-9-9Zm0 2.7c1.494 0 2.7 1.206 2.7 2.7 0 1.494-1.206 2.7-2.7 2.7a2.696 2.696 0 0 1-2.7-2.7c0-1.494 1.206-2.7 2.7-2.7Zm0 12.6c-2.25 0-4.24-1.097-5.4-2.76.027-1.706 3.6-2.64 5.4-2.64 1.79 0 5.373.935 5.4 2.64-1.16 1.663-3.15 2.76-5.4 2.76Z" fill="#fff"/><path fill-rule="evenodd" clip-rule="evenodd" d="M79.334 252.944a4.45 4.45 0 0 0-4.443 4.45 4.442 4.442 0 0 0 8.884 0 4.45 4.45 0 0 0-4.441-4.45Zm17.006-9.829a22.217 22.217 0 0 0-12.083-7.385c-.138 1.493-.3 2.983-.489 4.47a17.777 17.777 0 0 1 9.172 5.78c.443.52 1.07.787 1.7.787.508 0 1.013-.165 1.434-.52a2.216 2.216 0 0 0 .266-3.132Zm-21.93-7.385a22.217 22.217 0 0 0-12.083 7.385 2.222 2.222 0 1 0 3.4 2.865 17.802 17.802 0 0 1 9.169-5.78 127.228 127.228 0 0 1-.486-4.47Zm1.057 8.923a13.329 13.329 0 0 0-6.34 4.176 2.217 2.217 0 0 0 .273 3.124c.413.356.919.522 1.426.522.637 0 1.265-.268 1.708-.789a8.845 8.845 0 0 1 3.546-2.55 708.32 708.32 0 0 1-.613-4.483Zm14.073 4.176a13.304 13.304 0 0 0-6.344-4.178 714.609 714.609 0 0 1-.61 4.483 8.85 8.85 0 0 1 3.547 2.552c.442.52 1.072.79 1.707.79.507 0 1.013-.167 1.426-.523a2.213 2.213 0 0 0 .274-3.124Zm13.607-11.422a31.084 31.084 0 0 0-18.62-10.643c-.017 1.326-.04 2.95-.078 4.483a26.67 26.67 0 0 1 15.298 9.017 2.186 2.186 0 0 0 1.7.794 2.224 2.224 0 0 0 1.7-3.652m-29.005-10.641a31.07 31.07 0 0 0-18.622 10.643 2.223 2.223 0 0 0 1.7 3.652c.637 0 1.267-.267 1.7-.787a26.652 26.652 0 0 1 15.302-9.026 401.16 401.16 0 0 1-.08-4.482Zm7.732 8.832c-.156 3.082-1.05 12.278-1.05 12.278-.135 1.524-.61 1.943-1.493 1.943-.88 0-1.353-.419-1.489-1.943 0 0-.9-9.196-1.05-12.278-.103-2.135-.135-8.556-.135-8.556 0-2.68.982-4.042 2.674-4.042s2.679 1.363 2.679 4.041c0 0-.028 6.42-.135 8.556" fill="#AB0004"/><path fill-rule="evenodd" clip-rule="evenodd" d="M41.61 312.025h6.31c.724 0 .986.075 1.25.216.265.142.472.349.613.614.142.264.217.526.217 1.249v8.817c0 .723-.075.985-.217 1.249a1.468 1.468 0 0 1-.613.613c-.264.142-.526.217-1.25.217h-8.816c-.723 0-.985-.075-1.25-.217a1.467 1.467 0 0 1-.612-.613c-.142-.264-.217-.526-.217-1.249v-4.063l4.584-1.576v-5.257Z" fill="#E1E1E1"/><path d="M47.63 319.837a.351.351 0 0 0-.355-.348.351.351 0 0 0-.355.348v1.542l-2.065-2.027a.359.359 0 0 0-.5 0 .343.343 0 0 0 0 .492l2.064 2.027h-1.57a.351.351 0 0 0-.355.348c0 .192.158.348.354.348h2.427a.35.35 0 0 0 .354-.348v-2.382Z" fill="#383E45"/><path fill-rule="evenodd" clip-rule="evenodd" d="m30.003 315.437-.003-.001v-7.752L36.952 305l3.854 1.298v10.382l-3.854 1.244-6.94-2.484 6.983.908v-9.095l-4.504 1.04v6.106l-2.488 1.038Z" fill="#626870"/><path fill-rule="evenodd" clip-rule="evenodd" d="m19.886 600-5.784-3.789H7.609c-.907 0-1.236-.094-1.568-.271a1.838 1.838 0 0 1-.77-.766c-.177-.33-.271-.657-.271-1.561v-11.015c0-.904.094-1.231.272-1.561.177-.331.438-.59.77-.766.331-.177.66-.271 1.567-.271h14.782c.907 0 1.236.094 1.568.271.331.176.592.435.77.766.177.33.271.657.271 1.561v11.015c0 .904-.095 1.231-.272 1.561-.177.331-.438.59-.77.766-.331.177-.66.271-1.567.271h-1.53L19.886 600ZM8.704 584.444v-.74h12.592v.74H8.704Zm0 1.852v.741h12.592v-.741H8.704Zm0 3.334v-.741h12.592v.741H8.704Zm0 1.851v.741h6.666v-.741H8.704Z" fill="#AB6993"/><g fill-rule="evenodd" clip-rule="evenodd"><path d="M17.596 625H7.404c-.836 0-1.14-.087-1.445-.25a1.71 1.71 0 0 1-.709-.709c-.163-.306-.25-.609-.25-1.445v-10.192c0-.836.087-1.139.25-1.445a1.71 1.71 0 0 1 .71-.709c.305-.163.608-.25 1.444-.25h10.192c.836 0 1.14.087 1.445.25.305.164.545.404.709.709.163.306.25.609.25 1.445v10.192c0 .836-.087 1.139-.25 1.445a1.711 1.711 0 0 1-.71.709c-.305.163-.608.25-1.444.25Z" fill="#4A7AAB"/><path d="m8.064 620.424 1.912-5.561c.048-.142.128-.363.44-.363.185 0 .417.168.417.451 0 .097-.032.194-.064.292l-1.913 5.561c-.048.142-.128.363-.44.363a.442.442 0 0 1-.416-.451c0-.098.032-.195.064-.292Zm3.204-.486 1.697-4.961c.112-.327.32-.442.64-.442h.312c.296 0 .56.08.704.531l1.584 4.872c.048.141.128.398.128.557 0 .353-.28.636-.616.636-.288 0-.496-.115-.592-.398l-.336-1.061h-2.112l-.345 1.061c-.088.283-.272.398-.584.398-.36 0-.608-.247-.608-.636 0-.159.08-.416.128-.557Zm3.233-1.274-.744-2.555h-.016l-.776 2.555H14.5Z" fill="#fff"/><path d="M19.917 605A4.919 4.919 0 0 0 15 609.917a4.918 4.918 0 0 0 9.833 0A4.919 4.919 0 0 0 19.917 605Z" fill="#E7EDF4"/><path d="m19.175 611.958-1.854-1.853.523-.523 1.331 1.327 2.814-2.814.523.527-3.337 3.336Z" fill="#1D4772"/></g><path d="M8.205 555h13.59c1.114 0 1.519.116 1.926.334.407.218.727.538.945.945.218.407.334.811.334 1.926v13.59c0 1.115-.116 1.519-.334 1.926a2.275 2.275 0 0 1-.945.945c-.407.218-.811.334-1.926.334H8.205c-1.115 0-1.519-.116-1.926-.334a2.275 2.275 0 0 1-.945-.945c-.218-.407-.334-.811-.334-1.926v-13.59c0-1.115.116-1.519.334-1.926.218-.407.538-.727.945-.945.407-.218.811-.334 1.926-.334Z" fill="#AB6993"/><path d="M8.205 555h13.59c1.114 0 1.519.116 1.926.334.407.218.727.538.945.945.218.407.334.811.334 1.926v13.59c0 1.115-.116 1.519-.334 1.926a2.275 2.275 0 0 1-.945.945c-.407.218-.811.334-1.926.334H8.205c-1.115 0-1.519-.116-1.926-.334a2.275 2.275 0 0 1-.945-.945c-.218-.407-.334-.811-.334-1.926v-13.59c0-1.115.116-1.519.334-1.926.218-.407.538-.727.945-.945.407-.218.811-.334 1.926-.334Z" fill="#4A7AAB"/><g fill="#fff"><path d="m11.921 564.134-.164 5.855a.089.089 0 0 0 .165.047l1.871-3.242a1.066 1.066 0 0 1 1.265-1.698 1.065 1.065 0 0 1-.838 1.944l-1.866 3.232a.089.089 0 0 0 .123.12l4.982-3.061a.53.53 0 0 0 .25-.399l.364-3.603a.532.532 0 0 0-.263-.514l-2.158-1.246a.53.53 0 0 0-.577.03l-2.934 2.119a.53.53 0 0 0-.22.416ZM18.53 562.77l-3.185-1.838c-.17-.098-.208-.349-.086-.561l.741-1.283c.123-.212.36-.305.529-.207l3.184 1.839c.17.098.208.349.086.561l-.741 1.283c-.122.212-.359.304-.529.206Z"/></g><path fill-rule="evenodd" clip-rule="evenodd" d="M8.205 630h13.59c1.114 0 1.519.116 1.926.334.407.218.727.538.945.945.218.407.334.811.334 1.926v13.59c0 1.115-.116 1.519-.334 1.926a2.275 2.275 0 0 1-.945.945c-.407.218-.811.334-1.926.334H8.205c-1.115 0-1.519-.116-1.926-.334a2.275 2.275 0 0 1-.945-.945c-.218-.407-.334-.811-.334-1.926v-13.59c0-1.115.116-1.519.334-1.926.218-.407.538-.727.945-.945.407-.218.811-.334 1.926-.334Z" fill="#AB6993"/><g fill-rule="evenodd" clip-rule="evenodd" fill="#fff"><path d="M11.253 642.188a.175.175 0 0 1 .278-.082l1.874 1.522a.176.176 0 0 1-.031.294l-2.159 1.087a.49.49 0 0 1-.134.043l-.047.006a.497.497 0 0 1-.357-.107.466.466 0 0 1-.166-.463l.012-.046.73-2.254ZM16.916 635a1.497 1.497 0 0 1 1.983-.224l.063.047.366.305a1.427 1.427 0 0 1 .23 1.963l-.05.064-5.155 6.082a.352.352 0 0 1-.493.043l-2.048-1.7a.35.35 0 0 1-.044-.497L16.916 635Z"/></g><path fill-rule="evenodd" clip-rule="evenodd" d="M8.205 655h13.59c1.114 0 1.519.116 1.926.334.407.218.727.538.945.945.218.407.334.811.334 1.926v13.59c0 1.115-.116 1.519-.334 1.926a2.275 2.275 0 0 1-.945.945c-.407.218-.811.334-1.926.334H8.205c-1.115 0-1.519-.116-1.926-.334a2.275 2.275 0 0 1-.945-.945c-.218-.407-.334-.811-.334-1.926v-13.59c0-1.115.116-1.519.334-1.926.218-.407.538-.727.945-.945.407-.218.811-.334 1.926-.334Z" fill="#4A7AAB"/><g fill="#fff"><path fill-rule="evenodd" clip-rule="evenodd" d="M14.17 659.053a.445.445 0 0 0-.602.181l-.512.917-1.036.181a.464.464 0 0 0-.375.509l.125 1.041-.717.747a.464.464 0 0 0-.012.622l.717.769-.147 1.052a.466.466 0 0 0 .295.476l-1.695 2.987c-.046.068-.034.158 0 .226a.234.234 0 0 0 .193.113h1.82l.832 1.437a.234.234 0 0 0 .193.113.22.22 0 0 0 .194-.113l1.627-2.761 1.627 2.795a.234.234 0 0 0 .193.113.22.22 0 0 0 .194-.113l.83-1.471h1.82a.22.22 0 0 0 .194-.113.186.186 0 0 0 .012-.226l-1.684-2.942a.471.471 0 0 0 .261-.464l-.125-1.041.717-.747c.16-.158.17-.43.011-.622l-.716-.769.148-1.053a.47.47 0 0 0-.365-.498l-1.035-.203-.5-.917c-.103-.215-.354-.305-.581-.215h-.011l-.956.442-.933-.453Zm-.716 1.335.512-.916.933.452a.437.437 0 0 0 .41 0l.944-.43h.011l.501.939c.068.114.182.204.307.215l1.036.204-.148 1.041a.438.438 0 0 0 .114.373l.716.77-.728.747a.422.422 0 0 0-.125.373l.125 1.041-1.024.17a.46.46 0 0 0-.319.226l-.512.916-.933-.452a.437.437 0 0 0-.41 0l-.944.441h-.011l-.5-.939a.424.424 0 0 0-.32-.215l-1.046-.192.148-1.041a.44.44 0 0 0-.114-.374l-.706-.769.717-.747a.423.423 0 0 0 .126-.373l-.126-1.03s0-.011.012-.022l1.035-.182a.456.456 0 0 0 .319-.226Z"/><path d="M14.973 664.792a1.839 1.839 0 0 1-1.834-1.834c0-1.008.825-1.833 1.834-1.833 1.008 0 1.833.825 1.833 1.833a1.839 1.839 0 0 1-1.834 1.834Z"/></g><path d="M35.8 72.701a.6.6 0 0 1-.081-1.194l.081-.006h1.4v-1.999h-3.4a1.8 1.8 0 0 1-1.796-1.676L32 67.702V59.3a1.8 1.8 0 0 1 1.677-1.796l.123-.004h12.4a1.8 1.8 0 0 1 1.796 1.677L48 59.3v8.402a1.8 1.8 0 0 1-1.677 1.796l-.123.004h-3.4v1.999h1.4a.6.6 0 0 1 .082 1.195l-.081.005h-8.4Zm5.799-3.199h-3.2v2h3.2v-2Zm4.6-10.802H33.8a.6.6 0 0 0-.594.519l-.006.081v8.402a.6.6 0 0 0 .519.595l.081.005h12.4a.6.6 0 0 0 .594-.518l.006-.082V59.3a.6.6 0 0 0-.519-.594L46.2 58.7ZM35.585 97.461a1.87 1.87 0 0 1-.449-.651 1.824 1.824 0 0 1-.134-.773V83.96c-.01-.263.036-.524.136-.769.1-.244.253-.465.447-.648a2.14 2.14 0 0 1 .71-.418c.262-.093.541-.135.82-.123h5.77c.28-.012.56.029.823.122.263.093.505.235.712.42.194.184.346.406.445.651.1.246.145.509.133.772v12.077a1.83 1.83 0 0 1-.133.772c-.1.245-.251.468-.445.652-.207.183-.45.324-.713.416a2.184 2.184 0 0 1-.823.118h-5.768a2.182 2.182 0 0 1-1.531-.54Zm7.134-.676c.276.018.547-.07.755-.246a.925.925 0 0 0 .265-.697V84.165a.906.906 0 0 0-.265-.697 1.066 1.066 0 0 0-.755-.246h-.993c-.124 0-.187.058-.187.174v.174a.51.51 0 0 1-.145.38.515.515 0 0 1-.392.142h-2.004a.531.531 0 0 1-.39-.146.522.522 0 0 1-.147-.38v-.17c0-.116-.063-.174-.187-.174h-.996c-.276-.02-.55.068-.76.243a.926.926 0 0 0-.265.697V95.84a.906.906 0 0 0 .266.697c.21.176.482.265.76.246l5.44.002Zm-4.629-.65a.34.34 0 0 1-.103-.258.327.327 0 0 1 .103-.253.382.382 0 0 1 .263-.093h3.301a.365.365 0 0 1 .258.093.34.34 0 0 1 .1.253.34.34 0 0 1-.358.355h-3.308a.374.374 0 0 1-.256-.097ZM40 120.176a1.412 1.412 0 1 1-.001 2.825 1.412 1.412 0 0 1 .001-2.825Zm6.588 0a1.412 1.412 0 1 1-.001 2.825 1.412 1.412 0 0 1 .001-2.825Zm-13.176 0a1.412 1.412 0 1 1-.002 2.825 1.412 1.412 0 0 1 .002-2.825ZM40 113.588a1.412 1.412 0 1 1 0 2.824 1.412 1.412 0 0 1 0-2.824Zm6.588 0a1.412 1.412 0 1 1 0 2.824 1.412 1.412 0 0 1 0-2.824Zm-13.176 0a1.412 1.412 0 1 1 0 2.823 1.412 1.412 0 0 1 0-2.823ZM40 107a1.412 1.412 0 1 1 0 2.824A1.412 1.412 0 0 1 40 107Zm6.588 0a1.412 1.412 0 1 1 0 2.824 1.412 1.412 0 0 1 0-2.824Zm-13.176 0a1.412 1.412 0 1 1 0 2.823 1.412 1.412 0 0 1 0-2.823ZM46.151 132a1.85 1.85 0 0 1 1.85 1.85v4.49c0 .708-.282 1.388-.782 1.889l-6.989 6.989a2.675 2.675 0 0 1-3.778.002l-3.668-3.663a2.671 2.671 0 0 1-.003-3.778l6.987-6.995a2.67 2.67 0 0 1 1.89-.784h4.493Zm0 1.233h-4.493a1.44 1.44 0 0 0-1.017.422l-6.998 7.006a1.439 1.439 0 0 0 .012 2.024l3.668 3.662c.563.56 1.474.56 2.036-.001l6.988-6.989c.27-.27.42-.636.42-1.017v-4.49a.617.617 0 0 0-.616-.617Zm-2.26 1.646a1.233 1.233 0 1 1 0 2.466 1.233 1.233 0 0 1 0-2.466ZM40 173a8 8 0 1 0 0-16 8 8 0 0 0 0 16Zm0-15c.657 0 1.407.59 2.022 1.908.217.466.406 1.002.559 1.592h-5.162c.153-.59.342-1.126.56-1.592C38.592 158.59 39.342 158 40 158Zm-2.928 1.485a10.525 10.525 0 0 0-.683 2.015h-2.453a7.02 7.02 0 0 1 3.778-3.118c-.241.33-.456.704-.642 1.103Zm-.88 3.015A15.965 15.965 0 0 0 36 165c0 .871.067 1.712.193 2.5H33.46A6.982 6.982 0 0 1 33 165c0-.881.163-1.724.46-2.5h2.733Zm.197 6c.176.743.407 1.422.683 2.015.186.399.401.773.642 1.103a7.02 7.02 0 0 1-3.777-3.118h2.452Zm1.03 0h5.162a9.252 9.252 0 0 1-.56 1.592C41.408 171.41 40.658 172 40 172c-.657 0-1.407-.59-2.022-1.908a9.252 9.252 0 0 1-.559-1.592Zm5.375-1h-5.588A14.866 14.866 0 0 1 37 165c0-.883.073-1.725.206-2.5h5.588c.133.775.206 1.617.206 2.5s-.073 1.725-.206 2.5Zm.817 1h2.453a7.02 7.02 0 0 1-3.778 3.118c.241-.33.456-.704.642-1.103.276-.593.507-1.272.683-2.015Zm2.93-1h-2.734c.126-.788.193-1.629.193-2.5s-.067-1.712-.193-2.5h2.733c.297.776.46 1.619.46 2.5s-.163 1.724-.46 2.5Zm-4.255-9.118a7.02 7.02 0 0 1 3.777 3.118h-2.452a10.525 10.525 0 0 0-.683-2.015 6.609 6.609 0 0 0-.642-1.103Z" fill="#E5322D"/><path fill-rule="evenodd" clip-rule="evenodd" d="M32 190a8 8 0 1 1 4.312 7.101l-3.52.88a.638.638 0 0 1-.773-.774l.88-3.519A7.97 7.97 0 0 1 32 190Zm8-6.724a6.724 6.724 0 0 0-5.866 10.014c.08.142.102.309.063.467l-.682 2.728 2.728-.682a.635.635 0 0 1 .468.063 6.724 6.724 0 1 0 3.29-12.59Zm-1.583 3.335c.37-.42.913-.685 1.583-.685.67 0 1.214.265 1.583.685.358.407.527.929.527 1.426 0 .506-.12.905-.316 1.241-.17.29-.387.517-.553.689l-.044.046c-.183.192-.31.335-.402.511-.086.164-.157.389-.157.745a.638.638 0 0 1-1.276 0c0-.544.113-.974.303-1.337.184-.351.425-.607.61-.801l.022-.022c.187-.196.306-.321.394-.474.08-.136.143-.312.143-.598a.893.893 0 0 0-.209-.583c-.121-.138-.313-.252-.625-.252s-.504.114-.625.252a.892.892 0 0 0-.21.583.638.638 0 0 1-1.275 0c0-.497.169-1.019.527-1.426Zm.749 6.837a.834.834 0 1 1 1.667 0 .834.834 0 0 1-1.667 0Z" fill="#E5322D"/><g fill-rule="evenodd" clip-rule="evenodd"><path d="M42.249 33.415c-.897.432-1.57 1.16-2.062 1.985-.79-1.325-2.047-2.4-3.95-2.4S32 34.612 32 37.334c0 2.756 2.306 4.062 3.447 4.8 1.221.788 3.304 2.22 4.74 4.871 1.436-2.65 3.519-4.083 4.74-4.87.857-.555 2.373-1.431 3.073-3.003l-5.751-5.717Z" fill="#4D90FE"/><path d="M42.18 39.288V34.11l5.193 5.18H42.18Z" fill="#fff"/></g><g fill-rule="evenodd" clip-rule="evenodd"><path d="M42.249 8.415c-.897.432-1.57 1.16-2.062 1.985-.79-1.325-2.047-2.4-3.95-2.4S32 9.612 32 12.334c0 2.756 2.306 4.062 3.447 4.8 1.221.788 3.304 2.22 4.74 4.871 1.436-2.65 3.519-4.083 4.74-4.87.857-.556 2.373-1.431 3.073-3.003l-5.751-5.717Z" fill="#E5322D"/><path d="M42.18 14.288V9.11l5.193 5.18H42.18Z" fill="#fff"/></g><g fill-rule="evenodd" clip-rule="evenodd" fill="#E5322D"><path d="M42.17 210.671a.1.1 0 0 0-.17.07v3.659a.1.1 0 0 0 .1.1h3.659a.1.1 0 0 0 .07-.171l-3.658-3.658Z"/><path d="M38.086 208.4c.575.271 1.083.67 1.485 1.166.236.277.447.575.63.889.181-.314.389-.611.621-.889.37-.426.815-.779 1.312-1.04a.198.198 0 0 1 .23 0l5.598 5.658a.181.181 0 0 1 0 .222 7.258 7.258 0 0 1-2.814 2.809l-.2.131a13.674 13.674 0 0 0-4.476 4.496.326.326 0 0 1-.117.116.325.325 0 0 1-.317 0 .327.327 0 0 1-.117-.116 13.748 13.748 0 0 0-4.466-4.496l-.2-.131c-1.202-.778-3.255-2.142-3.255-4.779a4.438 4.438 0 0 1 1.228-3.09A4.365 4.365 0 0 1 36.246 208a4.194 4.194 0 0 1 1.84.4Zm-1.837.711a3.125 3.125 0 0 1 2.483 1.175l.002.002c.194.228.368.474.52.733l.948 1.623.948-1.624c.148-.259.319-.504.51-.732.138-.16.287-.308.448-.444l4.54 4.621a7.091 7.091 0 0 1-2.09 1.814l-.215.144a14.91 14.91 0 0 0-4.142 3.835 15.027 15.027 0 0 0-4.14-3.834l-.198-.14-.003-.002c-1.257-.811-2.758-1.856-2.758-3.847a3.33 3.33 0 0 1 .91-2.303 3.266 3.266 0 0 1 2.237-1.021Z"/></g><path d="M34.6 233.6h10.8a2.6 2.6 0 0 1 2.596 2.452l.004.148v7.6a2.6 2.6 0 0 1-2.453 2.596l-.147.004H34.6a2.6 2.6 0 0 1-2.596-2.452L32 243.8v-7.6a2.6 2.6 0 0 1 2.453-2.596l.147-.004h10.8-10.8Zm12.2 4.298-6.52 3.433a.601.601 0 0 1-.483.034l-.076-.034-6.521-3.432v5.901a1.4 1.4 0 0 0 1.285 1.395l.115.005h10.8a1.4 1.4 0 0 0 1.395-1.285l.005-.115v-5.902Zm-1.4-3.098H34.6a1.4 1.4 0 0 0-1.395 1.285l-.005.115v.343l6.8 3.579 6.8-3.58v-.342a1.4 1.4 0 0 0-1.285-1.395l-.115-.005Z" fill="#E5322D"/><path fill-rule="evenodd" clip-rule="evenodd" d="M41.858 258.408a.638.638 0 0 1 1.192.457l-4.908 12.727a.638.638 0 0 1-1.192-.457l4.908-12.727Zm-6.76 2.751a.64.64 0 0 1 .9-.069.636.636 0 0 1 .07.898L33.477 265l2.59 3.012a.636.636 0 0 1-.07.898.64.64 0 0 1-.9-.069l-2.944-3.427a.635.635 0 0 1 0-.828l2.944-3.427Zm8.904.421a.639.639 0 0 1 .9.069l2.944 3.426a.636.636 0 0 1 0 .829l-2.944 3.426a.639.639 0 0 1-.9.069.635.635 0 0 1-.07-.897l2.59-3.013-2.59-3.012a.635.635 0 0 1 .07-.897Z" fill="#E5322D"/><path d="M40 298a8 8 0 1 0 0-16 8 8 0 0 0 0 16Zm0-15c.657 0 1.407.59 2.022 1.908.217.466.406 1.002.559 1.592h-5.162c.153-.59.342-1.126.56-1.592C38.592 283.59 39.342 283 40 283Zm-2.928 1.485a10.525 10.525 0 0 0-.683 2.015h-2.453a7.02 7.02 0 0 1 3.778-3.118c-.241.33-.456.704-.642 1.103Zm-.88 3.015A15.965 15.965 0 0 0 36 290c0 .871.067 1.712.193 2.5H33.46A6.982 6.982 0 0 1 33 290c0-.881.163-1.724.46-2.5h2.733Zm.197 6c.176.743.407 1.422.683 2.015.186.399.401.773.642 1.103a7.02 7.02 0 0 1-3.777-3.118h2.452Zm1.03 0h5.162a9.252 9.252 0 0 1-.56 1.592C41.408 296.41 40.658 297 40 297c-.657 0-1.407-.59-2.022-1.908a9.252 9.252 0 0 1-.559-1.592Zm5.375-1h-5.588A14.866 14.866 0 0 1 37 290c0-.883.073-1.725.206-2.5h5.588c.133.775.206 1.617.206 2.5s-.073 1.725-.206 2.5Zm.817 1h2.453a7.02 7.02 0 0 1-3.778 3.118c.241-.33.456-.704.642-1.103.276-.593.507-1.272.683-2.015Zm2.93-1h-2.734c.126-.788.193-1.629.193-2.5s-.067-1.712-.193-2.5h2.733c.297.776.46 1.619.46 2.5s-.163 1.724-.46 2.5Zm-4.255-9.118a7.02 7.02 0 0 1 3.777 3.118h-2.452a10.525 10.525 0 0 0-.683-2.015 6.609 6.609 0 0 0-.642-1.103Z" fill="#161616"/><path d="M45.178 341.193h-.119A1.173 1.173 0 0 1 43.99 340v-.119a1.168 1.168 0 0 1 1.188-1.074h1.782v-3.428a1.534 1.534 0 0 0-.496-.997 1.516 1.516 0 0 0-1.038-.394h-1.98A2.296 2.296 0 0 0 41.218 332h-.159a2.279 2.279 0 0 0-2.118 1.988h-2.575a1.532 1.532 0 0 0-1.386 1.54v2.206a2.285 2.285 0 0 0-1.412.761A2.302 2.302 0 0 0 33 340v.159a2.287 2.287 0 0 0 1.98 2.107v2.355a1.531 1.531 0 0 0 1.525 1.391h1.98c.074.549.343 1.053.758 1.418s.948.568 1.5.57h.178a2.275 2.275 0 0 0 2.099-1.988h2.445a1.506 1.506 0 0 0 1.088-.448 1.52 1.52 0 0 0 .447-1.092v-3.279h-1.822Zm-3.267 4.521a1.188 1.188 0 1 1-2.376 0v-.795h-2.97a.444.444 0 0 1-.446-.447v-3.279h-.842a1.194 1.194 0 0 1 0-2.386h.792v-3.279a.447.447 0 0 1 .446-.447h3.515v-.795a1.188 1.188 0 1 1 2.376 0v.795h3.099a.433.433 0 0 1 .366.437v2.186h-.693a2.286 2.286 0 0 0-1.548.608c-.422.39-.682.925-.729 1.499v.139a2.28 2.28 0 0 0 .593 1.562c.388.426.923.689 1.496.734h.881v2.186a.45.45 0 0 1-.445.448H41.91v.834Z" fill="#E5322D"/><path fill-rule="evenodd" clip-rule="evenodd" d="M32 565a8 8 0 0 1 9.874-7.779.592.592 0 0 1 .275 1.001 1.877 1.877 0 0 0 .895 3.177.654.654 0 0 1 .512.638 1.877 1.877 0 0 0 3.286 1.238.592.592 0 0 1 1.029.285A8 8 0 1 1 32 565Zm8-6.815a6.815 6.815 0 1 0 6.811 6.586 3.062 3.062 0 0 1-4.414-2.33 3.062 3.062 0 0 1-1.69-4.22 6.864 6.864 0 0 0-.707-.036Zm-5.037 4.84a1.087 1.087 0 1 1 2.174 0 1.087 1.087 0 0 1-2.174 0Zm3.95 1.975a1.086 1.086 0 1 1 2.173 0 1.086 1.086 0 0 1-2.172 0Zm-2.962 2.963a1.086 1.086 0 1 1 2.172 0 1.086 1.086 0 0 1-2.172 0Zm4.938.988a1.087 1.087 0 1 1 2.174 0 1.087 1.087 0 0 1-2.174 0Z" fill="#E5322D"/><path d="M36.225 436.529a.566.566 0 0 0-.75.308.592.592 0 0 0 .3.77l3.653 1.607v3.718c0 .324.256.586.572.586a.579.579 0 0 0 .571-.586v-3.718l3.654-1.607a.592.592 0 0 0 .3-.77.565.565 0 0 0-.75-.308L40 438.189l-3.775-1.66Zm5.006-4.294a3.344 3.344 0 0 0-2.462 0l-5.67 2.237A1.76 1.76 0 0 0 32 436.114v7.772c0 .728.437 1.38 1.099 1.642l5.67 2.237c.793.313 1.67.313 2.462 0l5.67-2.237A1.76 1.76 0 0 0 48 443.886v-7.772a1.76 1.76 0 0 0-1.099-1.642l-5.67-2.237Zm-2.052 1.094a2.236 2.236 0 0 1 1.642 0l5.67 2.238c.22.087.366.305.366.547v7.772c0 .242-.145.46-.366.547l-5.67 2.238a2.236 2.236 0 0 1-1.642 0l-5.67-2.238a.586.586 0 0 1-.366-.547v-7.772c0-.242.145-.46.366-.547l5.67-2.238ZM41.076 457.908a.532.532 0 1 0-.752-.752l-1.504 1.504a1.595 1.595 0 0 0 0 2.256l.158.158-3.414 1.219a2.66 2.66 0 0 0-1.679 1.833l-1.838 7.046a1.459 1.459 0 0 0 1.781 1.781l7.046-1.838a2.66 2.66 0 0 0 1.833-1.679l1.22-3.414.157.158a1.595 1.595 0 0 0 2.256 0l1.504-1.504a.532.532 0 0 0-.752-.752l-1.504 1.504a.531.531 0 0 1-.752 0l-5.264-5.264a.532.532 0 0 1 0-.752l1.504-1.504Zm2.018 7.282-1.389 3.888c-.177.497-.589.874-1.1 1.008l-6.682 1.743 4.245-4.245a1.064 1.064 0 1 0-.752-.752l-4.245 4.245 1.743-6.683c.134-.51.51-.922 1.008-1.099l3.888-1.389 3.284 3.284Z" fill="#E5322D"/><path fill-rule="evenodd" clip-rule="evenodd" d="M34.003 487.596C34.108 484.484 36.757 482 40 482c3.309 0 6 2.586 6 5.787 0 1.679-.75 3.212-2.196 4.573a.435.435 0 0 0-.104.15l-.022.069-.912 3.804c-.195.815-.916 1.4-1.762 1.463H41l-.146.005h-1.706c-.86 0-1.617-.54-1.873-1.327l-.002-.006-.038-.136-.912-3.808a.432.432 0 0 0-.125-.214c-1.377-1.296-2.124-2.748-2.192-4.335v-.003l-.005-.238.003-.188Zm1.28-.176-.012.202-.003.144.004.207c.053 1.22.633 2.373 1.796 3.468.2.189.352.423.442.681l.002.007.044.152.331 1.389h4.227l.354-1.472.053-.154c.091-.228.232-.434.412-.603 1.22-1.149 1.799-2.362 1.799-3.654 0-2.485-2.106-4.523-4.732-4.523-2.496 0-4.53 1.845-4.717 4.156Zm2.907 7.514.268 1.116.024.087a.68.68 0 0 0 .567.444l.102.006 1.664.001.098-.003a.691.691 0 0 0 .593-.414l.027-.087.277-1.15h-3.62Z" fill="#E5322D"/><path d="M39.969 484.477a.467.467 0 0 0-.469.464c0 .257.21.465.469.465 1.55 0 2.813 1.25 2.813 2.786 0 .256.21.464.469.464a.467.467 0 0 0 .468-.464c0-2.049-1.682-3.715-3.75-3.715Z" fill="#E5322D"/><path fill-rule="evenodd" clip-rule="evenodd" d="M45.532 510.603h-2.318v-1.431c0-.646-.538-1.172-1.198-1.172h-4.032c-.66 0-1.198.526-1.198 1.172v1.431h-2.318c-1.36 0-2.468 1.094-2.468 2.439v6.966c0 1.098.904 1.992 2.016 1.992h11.968c1.111 0 2.016-.894 2.016-1.992v-6.966c0-1.345-1.107-2.439-2.468-2.439Zm-7.805-1.431c0-.138.11-.243.257-.243h4.032c.147 0 .258.105.258.243v1.431h-4.547v-1.431Zm9.333 10.836a1.07 1.07 0 0 1-1.076 1.063H34.016a1.07 1.07 0 0 1-1.076-1.063v-4.34c.148.091.309.165.481.218l.028.007 4.79 1.157v.382c0 .6.494 1.088 1.1 1.088h1.321c.608 0 1.101-.488 1.101-1.088v-.382l4.79-1.157a2.068 2.068 0 0 0 .508-.225v4.34Zm-7.881-2.576v-1.311a.16.16 0 0 1 .16-.158h1.321a.16.16 0 0 1 .161.158v1.311a.16.16 0 0 1-.16.159H39.34a.16.16 0 0 1-.161-.159Zm7.88-3.453c0 .467-.299.873-.746 1.015l-4.552 1.1a1.097 1.097 0 0 0-1.1-1.061H39.34c-.598 0-1.086.474-1.1 1.061l-4.553-1.1a1.061 1.061 0 0 1-.747-1.015v-.937c0-.832.686-1.51 1.528-1.51h11.064c.842 0 1.528.678 1.528 1.51v.937Z" fill="#E5322D" stroke="#E5322D" stroke-width=".2"/><path fill-rule="evenodd" clip-rule="evenodd" d="M38.623 534.352a2.87 2.87 0 0 1 2.754 0l6.33 3.487c.181.1.293.285.293.486 0 .2-.112.385-.293.485l-2.325 1.281v3.675a.55.55 0 0 1-.17.396l-.002.001-.002.003-.008.007-.02.018v.001l-.074.064a5.006 5.006 0 0 1-.27.214 7.178 7.178 0 0 1-1.017.627A8.345 8.345 0 0 1 40 546a8.345 8.345 0 0 1-3.82-.903 7.178 7.178 0 0 1-1.016-.627 5.006 5.006 0 0 1-.27-.214l-.073-.064-.001-.001a.579.579 0 0 1-.202-.425v-3.675l-1.451-.799v3.637c0 .309-.261.56-.584.56a.572.572 0 0 1-.583-.56v-4.604c0-.212.123-.396.303-.491l6.32-3.482Zm2.173.971a1.659 1.659 0 0 0-1.592 0l-5.449 3.002 5.45 3.001a1.658 1.658 0 0 0 1.59 0l5.45-3.001-5.45-3.002Zm-5.011 5.41v2.78l.094.072c.189.14.475.332.85.524a7.14 7.14 0 0 0 3.271.771 7.14 7.14 0 0 0 3.27-.771 6.097 6.097 0 0 0 .945-.596v-2.78l-2.838 1.564c-.853.47-1.901.47-2.754 0l-2.838-1.564Z" fill="#E5322D"/><path d="M8.2 680h13.6c1.113 0 1.53.104 1.913.348.417.209.73.522.94.939.208.417.347.8.347 1.913v13.6c0 1.113-.104 1.53-.348 1.913a2.05 2.05 0 0 1-.939.939c-.417.209-.8.348-1.913.348H8.2c-1.113 0-1.53-.104-1.913-.348-.383-.243-.73-.522-.94-.939-.208-.417-.347-.8-.347-1.913v-13.6c0-1.113.104-1.53.348-1.913a2.05 2.05 0 0 1 .939-.939c.383-.244.8-.348 1.913-.348Z" fill="#EE6C4D"/><mask id="b" fill="#fff"><path fill-rule="evenodd" clip-rule="evenodd" d="M17.427 694.29h-4.854c-.365 0-.661-.317-.661-.709v-7.162c0-.392.296-.709.661-.709h3.177v1.507a1 1 0 0 0 1 1h1.338v5.364c0 .392-.296.709-.662.709Zm-4.854.71h4.854c.73 0 1.323-.635 1.323-1.419v-5.348c0-.376-.14-.737-.388-1.004l-1.667-1.813a1.28 1.28 0 0 0-.936-.416h-3.186c-.73 0-1.323.635-1.323 1.419v7.162c0 .784.593 1.419 1.323 1.419Z"/></mask><path fill-rule="evenodd" clip-rule="evenodd" d="M17.427 694.29h-4.854c-.365 0-.661-.317-.661-.709v-7.162c0-.392.296-.709.661-.709h3.177v1.507a1 1 0 0 0 1 1h1.338v5.364c0 .392-.296.709-.662.709Zm-4.854.71h4.854c.73 0 1.323-.635 1.323-1.419v-5.348c0-.376-.14-.737-.388-1.004l-1.667-1.813a1.28 1.28 0 0 0-.936-.416h-3.186c-.73 0-1.323.635-1.323 1.419v7.162c0 .784.593 1.419 1.323 1.419Z" fill="#FBE8E2"/><path d="M15.75 685.71h2v-2h-2v2Zm2.338 2.507 2-.042-.041-1.958h-1.959v2Zm.274-.988-1.472 1.354.01.01 1.462-1.364Zm-1.667-1.813 1.472-1.354-.01-.01-1.462 1.364Zm-4.122 10.874h4.854v-4h-4.854v4Zm-2.661-2.709c0 1.362 1.062 2.709 2.661 2.709v-4c.869 0 1.339.712 1.339 1.291h-4Zm0-7.162v7.162h4v-7.162h-4Zm2.661-2.709c-1.599 0-2.661 1.347-2.661 2.709h4c0 .579-.47 1.291-1.339 1.291v-4Zm3.177 0h-3.177v4h3.177v-4Zm-2 2v1.507h4v-1.507h-4Zm0 1.507a3 3 0 0 0 3 3v-4a1 1 0 0 1 1 1h-4Zm3 3h1.338v-4H16.75v4Zm3.338-1.984v-.058l-4 .084v-.026h4Zm0 5.348v-5.348h-4v5.348h4Zm-2.662 2.709c1.6 0 2.662-1.347 2.662-2.709h-4c0-.579.47-1.291 1.338-1.291v4Zm0-3.29h-4.852v4h4.853v-4Zm-.676.581c0-.116.045-.248.15-.361a.724.724 0 0 1 .527-.22v4c1.964 0 3.323-1.665 3.323-3.419h-4Zm0-5.348v5.348h4v-5.348h-4Zm.15.36a.527.527 0 0 1-.15-.36h4c0-.864-.319-1.717-.925-2.368l-2.925 2.728Zm-1.678-1.823 1.668 1.813 2.944-2.707-1.667-1.814-2.945 2.708Zm.537.23a.723.723 0 0 1-.527-.22l2.925-2.728A3.28 3.28 0 0 0 15.76 683v4Zm-3.186 0h3.186v-4h-3.186v4Zm.677-.581a.535.535 0 0 1-.15.361.724.724 0 0 1-.527.22v-4c-1.964 0-3.323 1.665-3.323 3.419h4Zm0 7.162v-7.162h-4v7.162h4Zm-.677-.581c.234 0 .42.105.527.22.105.113.15.245.15.361h-4c0 1.754 1.359 3.419 3.323 3.419v-4Z" fill="#FBE8E2" mask="url(#b)"/><path fill-rule="evenodd" clip-rule="evenodd" d="M20.653 697H19.18a.503.503 0 1 1 0-1.009h1.474a.351.351 0 0 0 .338-.338v-1.474c0-.279.225-.504.505-.504s.504.225.504.504v1.474c0 .736-.61 1.347-1.347 1.347ZM9.347 683h1.474a.503.503 0 1 1 0 1.009H9.347a.351.351 0 0 0-.338.338v1.474a.503.503 0 1 1-1.009 0v-1.474c0-.736.61-1.347 1.347-1.347ZM8 695.653v-1.474a.503.503 0 1 1 1.009 0v1.474c0 .177.16.338.338.338h1.474a.503.503 0 1 1 0 1.009H9.347A1.357 1.357 0 0 1 8 695.653ZM22 684.347v1.474a.503.503 0 1 1-1.009 0v-1.474a.351.351 0 0 0-.338-.338H19.18a.503.503 0 1 1 0-1.009h1.474c.736 0 1.347.611 1.347 1.347Z" fill="#fff"/><path fill-rule="evenodd" clip-rule="evenodd" d="M40.918 386.54A4.541 4.541 0 0 1 45.46 382c.666 0 1.3.143 1.87.401a.595.595 0 0 1 .175.959l-2.194 2.193 1.137 1.136 2.195-2.193a.594.594 0 0 1 .959.175 4.541 4.541 0 0 1-5.202 6.284l-6.247 6.324a2.43 2.43 0 0 1-3.242.191 2.424 2.424 0 0 1-.231-3.579l6.31-6.535a4.56 4.56 0 0 1-.073-.816Zm4.543-3.356a3.357 3.357 0 0 0-3.25 4.205.593.593 0 0 1-.146.561l-6.532 6.763a1.24 1.24 0 0 0 1.778 1.733l6.492-6.572a.591.591 0 0 1 .607-.146 3.356 3.356 0 0 0 4.37-3.695l-1.912 1.912a.591.591 0 0 1-.838 0l-1.976-1.973a.592.592 0 0 1 0-.838l1.914-1.912a3.383 3.383 0 0 0-.507-.038Z" fill="#E5322D"/><g fill="#E5322D"><path d="M40 360h-5a.503.503 0 0 1-.5-.5.501.501 0 0 1 .5-.5h5a.503.503 0 0 1 .5.5.501.501 0 0 1-.5.5ZM40 362h-5a.503.503 0 0 1-.5-.5.501.501 0 0 1 .5-.5h5a.503.503 0 0 1 .5.5.501.501 0 0 1-.5.5ZM40 364h-5a.503.503 0 0 1-.5-.5.501.501 0 0 1 .5-.5h5a.503.503 0 0 1 .5.5.501.501 0 0 1-.5.5Z"/><path d="M33.5 368a.503.503 0 0 1-.5-.5v-1.586a1.498 1.498 0 0 1-1-1.414v-6a1.5 1.5 0 0 1 1.5-1.5h8a1.5 1.5 0 0 1 1.5 1.5v6a1.5 1.5 0 0 1-1.5 1.5h-5.793l-1.854 1.854a.503.503 0 0 1-.353.146Zm0-10a.5.5 0 0 0-.5.5v6a.498.498 0 0 0 .5.5.503.503 0 0 1 .5.5v.793l1.147-1.147A.503.503 0 0 1 35.5 365h6a.5.5 0 0 0 .5-.5v-6a.498.498 0 0 0-.5-.5h-8Z"/><path d="M46.5 373a.502.502 0 0 1-.353-.146L44.293 371H38.5a1.5 1.5 0 0 1-1.5-1.5v-4a.501.501 0 1 1 1 0v4a.498.498 0 0 0 .5.5h6c.133 0 .26.053.353.146L46 371.293v-.793a.501.501 0 0 1 .5-.5.5.5 0 0 0 .5-.5v-6a.498.498 0 0 0-.5-.5h-4a.503.503 0 0 1-.5-.5.501.501 0 0 1 .5-.5h4a1.5 1.5 0 0 1 1.5 1.5v6a1.502 1.502 0 0 1-1 1.414v1.586a.501.501 0 0 1-.5.5Z"/></g><path d="M71.008 322C79.768 322 87 314.768 87 306.008 87 297.232 79.752 290 70.992 290 62.232 290 55 297.232 55 306.008 55 314.768 62.232 322 71.008 322Z" fill="#707078"/><path fill-rule="evenodd" clip-rule="evenodd" d="M71.008 322C79.768 322 87 314.768 87 306.008 87 297.232 79.752 290 70.992 290 62.232 290 55 297.232 55 306.008 55 314.768 62.232 322 71.008 322Z" fill="#707078"/><mask id="c" style="mask-type:luminance" maskUnits="userSpaceOnUse" x="55" y="290" width="32" height="32"><path fill-rule="evenodd" clip-rule="evenodd" d="M71.008 322C79.768 322 87 314.768 87 306.008 87 297.232 79.752 290 70.992 290 62.232 290 55 297.232 55 306.008 55 314.768 62.232 322 71.008 322Z" fill="#fff"/></mask><path d="M85.5 306.008c0 7.931-6.56 14.492-14.492 14.492-7.948 0-14.508-6.562-14.508-14.492 0-7.948 6.562-14.508 14.492-14.508 7.932 0 14.508 6.562 14.508 14.508Z" stroke="#707078" stroke-width="3"/><path d="M80.417 300.527a.789.789 0 0 0-1.322-.362l-1.82 1.821a1.597 1.597 0 0 1-2.256 0 1.598 1.598 0 0 1 0-2.256l1.82-1.822a.788.788 0 0 0-.362-1.321c-3.366-.856-6.395 1.337-6.95 4.365a5.648 5.648 0 0 0 .227 2.905l-7.654 7.654a2.406 2.406 0 0 0 .015 3.408c.941.893 2.383.93 3.378-.015l7.654-7.653c1.226.437 2.593.428 3.93-.044 2.41-.85 4.098-3.705 3.34-6.68Z" fill="#fff"/><path d="M62 181.997a.508.508 0 0 0-.178-.386l-4.865-4.456a.557.557 0 0 0-.393-.155.6.6 0 0 0-.288.069.516.516 0 0 0-.276.455c0 .142.053.267.16.374L60.654 182l-4.495 4.102a.504.504 0 0 0-.16.374c0 .1.025.19.074.271a.54.54 0 0 0 .202.184.6.6 0 0 0 .288.069.605.605 0 0 0 .221-.04.6.6 0 0 0 .178-.115l4.86-4.456a.535.535 0 0 0 .177-.392Z" fill="#161616"/><g fill="#161616"><path d="M58.714 30C56.663 30 55 31.698 55 33.792v15.75c0 2.094 1.663 3.791 3.714 3.791h7.726v2.335h-3.426c-.632 0-1.143.522-1.143 1.166 0 .644.511 1.166 1.143 1.166h15.99c.632 0 1.144-.522 1.144-1.166 0-.644-.512-1.166-1.143-1.166h-3.427v-2.335h7.708c2.051 0 3.714-1.697 3.714-3.791v-15.75C87 31.698 85.337 30 83.286 30H58.714Zm14.578 23.333v2.335h-4.566v-2.335h4.566ZM57.286 33.792c0-.806.64-1.459 1.428-1.459h24.572c.789 0 1.428.653 1.428 1.459v15.75c0 .805-.64 1.458-1.428 1.458H58.714c-.789 0-1.428-.653-1.428-1.458v-15.75Z"/><path d="M70.47 46.895a1.562 1.562 0 0 1-.507-.36l-3.612-3.579a1.389 1.389 0 0 1-.256-.36.987.987 0 0 1-.094-.435 1.06 1.06 0 0 1 .338-.807c.213-.205.493-.317.784-.314a1.08 1.08 0 0 1 .84.393l1.286 1.388.634.901-.199-1.65V37.32a1.36 1.36 0 0 1 .393-.938c.246-.247.577-.384.921-.382a1.228 1.228 0 0 1 .921.398 1.289 1.289 0 0 1 .377.924v4.75l-.185 1.645.633-.901 1.286-1.389a1.08 1.08 0 0 1 .376-.293 1.05 1.05 0 0 1 .462-.1c.29.001.57.116.78.32.114.1.204.223.265.363.06.14.09.291.087.444.002.151-.03.3-.093.436a1.387 1.387 0 0 1-.256.361l-3.621 3.575a1.562 1.562 0 0 1-.507.36 1.37 1.37 0 0 1-1.053.002Z"/></g><g fill-rule="evenodd" clip-rule="evenodd"><path d="M6.896 280.002 15.91 280c.724 0 .987.075 1.251.217.265.142.473.349.614.614.142.265.217.528.217 1.252v8.834c0 .724-.075.987-.217 1.252-.141.265-.349.472-.614.614-.264.142-.527.217-1.25.217h-8.83c-.724 0-.986-.075-1.251-.217a1.477 1.477 0 0 1-.614-.614c-.129-.241-.203-.48-.215-1.066L5 282.083c0-.724.075-.987.217-1.252.141-.265.35-.472.614-.614.24-.129.48-.203 1.065-.215Z" fill="#FFF3B6"/><path d="m9.882 284.176.01-2.003a.56.56 0 0 1 .556-.556.546.546 0 0 1 .55.551l-.016 3.321a.56.56 0 0 1-.556.556l-3.32.017a.546.546 0 0 1-.55-.551.56.56 0 0 1 .556-.556l2.122-.011-3.09-3.092a.498.498 0 0 1 .003-.704.497.497 0 0 1 .704-.004l3.03 3.032Z" fill="#DAB400"/><path d="m13.892 287.002 9.015-.002c.724 0 .987.075 1.252.217.264.142.472.349.614.614.141.265.216.528.216 1.252v8.834c0 .724-.075.987-.216 1.252-.142.265-.35.472-.614.614-.265.142-.528.217-1.252.217h-8.829c-.724 0-.986-.075-1.25-.217a1.477 1.477 0 0 1-.615-.614c-.128-.241-.202-.48-.215-1.066l-.002-9.02c0-.724.076-.987.217-1.252.142-.265.35-.472.614-.614.24-.129.48-.203 1.065-.215Z" fill="#FFD400"/><path d="M22.012 291.167a.917.917 0 0 1 0 1.833.918.918 0 0 1 0-1.833ZM17.014 297.125h-2.906a.113.113 0 0 1-.098-.057.11.11 0 0 1 0-.111l3.014-5.052c.04-.068.154-.068.194 0l1.755 2.944 1.177-1.203a.113.113 0 0 1 .082-.034h.003a.113.113 0 0 1 .083.039l2.79 3.27c.03.02.05.054.05.093 0 .061-.051.111-.114.111H17.014Z" fill="#fff"/></g><g fill-rule="evenodd" clip-rule="evenodd"><path d="M26.5 200H15.9c-.87 0-1.185-.075-1.502-.217a1.657 1.657 0 0 1-.738-.614c-.17-.265-.26-.528-.26-1.252v-8.834c0-.724.09-.987.26-1.252s.42-.472.738-.614c.317-.142.633-.217 1.502-.217h10.6c.87 0 1.185.075 1.502.217.318.142.568.349.738.614.17.265.26.528.26 1.252v8.834c0 .724-.09.987-.26 1.252s-.42.472-.738.614c-.317.142-.633.217-1.502.217Z" fill="#FFD400"/><path d="M7.276 180.002 18.1 180c.87 0 1.185.075 1.502.217.318.142.568.349.738.614.17.265.26.528.26 1.252v8.834c0 .724-.09.987-.26 1.252s-.42.472-.738.614c-.317.142-.633.217-1.502.217H7.5c-.87 0-1.185-.075-1.502-.217a1.656 1.656 0 0 1-.738-.614c-.154-.241-.243-.48-.258-1.066L5 182.083c0-.724.09-.987.26-1.252s.42-.472.738-.614c.288-.129.575-.203 1.278-.215Z" fill="#FFF3B6"/><path d="m25.661 196.51.012-2.003c.002-.306.301-.555.668-.557.367-.001.663.245.66.551l-.02 3.321c-.001.306-.3.555-.667.557l-3.985.016c-.367.002-.663-.245-.661-.55.002-.306.3-.555.667-.557l2.548-.01-3.71-3.093c-.232-.193-.23-.508.004-.704a.686.686 0 0 1 .845-.004l3.64 3.033Z" fill="#fff"/><path d="M17.025 184.167c.607 0 1.1.411 1.1.916 0 .506-.494.917-1.1.917-.606 0-1.1-.411-1.1-.917 0-.505.494-.916 1.1-.916ZM11.024 190.125H7.535a.142.142 0 0 1-.117-.057.094.094 0 0 1 0-.111l3.618-5.052c.049-.068.185-.068.233 0l2.108 2.944 1.413-1.203a.15.15 0 0 1 .098-.034h.004a.147.147 0 0 1 .1.039l3.348 3.27c.036.02.06.054.06.093 0 .061-.06.111-.136.111h-7.24Z" fill="#DAB400"/></g><path fill-rule="evenodd" clip-rule="evenodd" d="M22.917 550h-8.834c-.724 0-.987-.075-1.252-.217a1.478 1.478 0 0 1-.614-.614c-.142-.265-.217-.528-.217-1.252v-8.834c0-.724.075-.987.217-1.252.142-.265.35-.472.614-.614.265-.142.528-.217 1.252-.217h8.834c.724 0 .987.075 1.252.217.264.142.472.349.614.614.142.265.217.528.217 1.252v8.834c0 .724-.075.987-.217 1.252-.142.265-.35.472-.614.614-.265.142-.528.217-1.252.217Z" fill="#FFD400"/><path fill-rule="evenodd" clip-rule="evenodd" d="m6.897 530.002 9.02-.002c.724 0 .987.075 1.252.217.264.142.472.349.614.614.142.265.217.528.217 1.252v8.834c0 .724-.075.987-.217 1.252-.142.265-.35.472-.614.614-.265.142-.528.217-1.252.217H7.083c-.724 0-.987-.075-1.252-.217a1.477 1.477 0 0 1-.614-.614c-.129-.241-.203-.48-.215-1.066L5 532.083c0-.724.075-.987.217-1.252.142-.265.35-.472.614-.614.241-.129.48-.203 1.066-.215Z" fill="#FFF3B6"/><path fill-rule="evenodd" clip-rule="evenodd" d="m22.218 546.51.01-2.003a.561.561 0 0 1 .556-.557.547.547 0 0 1 .551.551l-.017 3.321a.561.561 0 0 1-.556.557l-3.321.016a.546.546 0 0 1-.551-.55.561.561 0 0 1 .556-.557l2.123-.01-3.092-3.093a.498.498 0 0 1 .004-.704.499.499 0 0 1 .704-.004l3.033 3.033Z" fill="#fff"/><path d="M11.5 532a4.5 4.5 0 1 1 0 9 4.5 4.5 0 0 1 0-9Zm1.085 5h-2.17c.098 1.872.728 3 1.085 3s.988-1.128 1.085-3Zm-3.172 0H8.04a3.502 3.502 0 0 0 1.915 2.635A7.844 7.844 0 0 1 9.412 537Zm5.547 0h-1.373a7.845 7.845 0 0 1-.541 2.635A3.502 3.502 0 0 0 14.96 537Zm-5.006-3.635A3.502 3.502 0 0 0 8.04 536h1.373c.027-.903.21-1.795.541-2.635ZM11.5 533c-.357 0-.988 1.128-1.085 3h2.17c-.098-1.872-.728-3-1.085-3Zm1.546.365c.33.84.514 1.732.541 2.635h1.373a3.502 3.502 0 0 0-1.915-2.635Z" fill="#EF9E02"/><g clip-path="url(#d)"><path fill-rule="evenodd" clip-rule="evenodd" d="M8.205 55h13.59c1.114 0 1.519.116 1.926.334.407.218.727.537.945.945.218.407.334.811.334 1.926v13.59c0 1.114-.116 1.519-.334 1.926a2.272 2.272 0 0 1-.945.945c-.407.218-.811.334-1.926.334H8.205c-1.115 0-1.519-.116-1.926-.334a2.272 2.272 0 0 1-.945-.945C5.116 73.314 5 72.91 5 71.795v-13.59c0-1.114.116-1.519.334-1.926.218-.408.538-.727.945-.945.407-.218.811-.334 1.926-.334Z" fill="#EE6C4D"/><path d="M9.97 59.97a.75.75 0 0 1 .976-.073l.084.073 9 9a.75.75 0 0 1-.976 1.133l-.084-.073-9-9a.75.75 0 0 1 0-1.06Z" fill="#fff"/><path d="M20.03 59.97a.75.75 0 0 0-.976-.073l-.084.073-9 9a.75.75 0 0 0 .976 1.133l.084-.073 9-9a.75.75 0 0 0 0-1.06Z" fill="#fff"/></g><g fill-rule="evenodd" clip-rule="evenodd"><path d="m6.897 505.002 9.02-.002c.724 0 .987.075 1.252.217.264.142.472.349.614.614.142.265.217.528.217 1.252v8.834c0 .724-.075.987-.217 1.252-.142.265-.35.472-.614.614-.265.142-.528.217-1.252.217H7.083c-.724 0-.987-.075-1.252-.217a1.477 1.477 0 0 1-.614-.614c-.129-.241-.203-.48-.215-1.066L5 507.083c0-.724.075-.987.217-1.252.142-.265.35-.472.614-.614.241-.129.48-.203 1.066-.215Z" fill="#E8EDF3"/><path d="M22.917 525h-8.834c-.724 0-.987-.075-1.252-.217a1.478 1.478 0 0 1-.614-.614c-.142-.265-.217-.528-.217-1.252v-8.834c0-.724.075-.987.217-1.252.142-.265.35-.472.614-.614.241-.129.48-.203 1.066-.215l9.02-.002c.724 0 .987.075 1.252.217.264.142.472.349.614.614.142.265.217.528.217 1.252v8.834c0 .724-.075.987-.217 1.252-.142.265-.35.472-.614.614-.265.142-.528.217-1.252.217Z" fill="#4A7AAB"/><path d="m10.551 509.843.01-2.003a.56.56 0 0 1 .556-.556.546.546 0 0 1 .551.55l-.016 3.322a.56.56 0 0 1-.557.556l-3.321.017a.547.547 0 0 1-.55-.551.56.56 0 0 1 .555-.556l2.124-.011-3.093-3.092a.499.499 0 0 1 .004-.705.498.498 0 0 1 .705-.003l3.032 3.032Z" fill="#1D4772"/><path d="m14.858 520.624 1.72-4.529c.044-.115.116-.295.396-.295.166 0 .375.137.375.367a.719.719 0 0 1-.058.238l-1.72 4.529c-.044.115-.116.295-.397.295-.165 0-.374-.137-.374-.367 0-.08.029-.159.058-.238Zm2.883-.396 1.526-4.039c.1-.267.288-.36.576-.36h.28c.267 0 .505.065.634.432l1.426 3.967c.043.115.115.324.115.454 0 .288-.252.518-.554.518-.26 0-.447-.094-.533-.324l-.302-.864h-1.901l-.31.864c-.079.23-.245.324-.525.324-.324 0-.547-.202-.547-.518 0-.13.072-.339.115-.454Zm2.909-1.037-.67-2.081h-.015l-.698 2.081h1.383Z" fill="#fff"/></g><path d="M8.205 705h13.59c1.114 0 1.519.116 1.926.334.407.218.727.538.945.945.218.407.334.811.334 1.926v13.59c0 1.115-.116 1.519-.334 1.926a2.275 2.275 0 0 1-.945.945c-.407.218-.811.334-1.926.334H8.205c-1.115 0-1.519-.116-1.926-.334a2.275 2.275 0 0 1-.945-.945c-.218-.407-.334-.811-.334-1.926v-13.59c0-1.115.116-1.519.334-1.926.218-.407.538-.727.945-.945.407-.218.811-.334 1.926-.334Z" fill="#8FBC5D"/><path d="M19.509 716.24a.439.439 0 0 1-.439-.439v-3.323a.935.935 0 0 0-.257-.647l-2.609-2.314a.858.858 0 0 0-.62-.268h-3.829c-.484 0-.877.41-.877.915v.935a.44.44 0 0 1-.878 0v-.935c0-1.011.786-1.831 1.755-1.831h3.829c.465 0 .912.193 1.241.537l2.609 2.313c.329.344.514.81.514 1.295v3.323a.439.439 0 0 1-.439.439Z" fill="#E5F5D2"/><path d="m15.623 708.333 2.162 2.146 1.73 2.146h-2.852a1.04 1.04 0 0 1-1.04-1.04v-3.252Z" fill="#E5F5D2"/><path d="M8.333 715.939c0-.519.351-.939.785-.939h11.764c.433 0 .785.42.785.939v4.789c0 .518-.352.939-.785.939H9.118c-.434 0-.785-.421-.785-.939v-4.789Z" fill="#fff"/><path fill-rule="evenodd" clip-rule="evenodd" d="M10.917 715.566c.606 0 1.059.158 1.342.478.222.25.352.584.394 1.001l.011.161.003.145v1.912l-.004.158c-.023.487-.156.876-.403 1.162-.285.331-.738.493-1.343.493-.307 0-.575-.041-.802-.126a1.295 1.295 0 0 1-.567-.392 1.582 1.582 0 0 1-.293-.576 2.324 2.324 0 0 1-.074-.415l-.011-.154-.003-.157v-1.909l.003-.144c.021-.494.154-.882.403-1.162.283-.319.735-.475 1.344-.475Zm4.228 0c.567 0 .99.143 1.253.436.204.226.324.529.363.908l.011.146.004.146v.06c0 .292-.26.529-.578.529a.573.573 0 0 1-.559-.395l-.016-.071-.004-.062v-.159l-.008-.19-.008-.089-.005-.028-.034-.121-.016-.04a.695.695 0 0 0-.074-.079.114.114 0 0 0-.044-.027.951.951 0 0 0-.278-.041.946.946 0 0 0-.231.025.288.288 0 0 0-.116.055.468.468 0 0 0-.09.105.466.466 0 0 0-.05.151l-.019.117-.011.11-.008.203v2.074c0 .341.046.574.126.684.065.09.19.138.399.138a.851.851 0 0 0 .214-.023.226.226 0 0 0 .097-.05.493.493 0 0 0 .085-.104.438.438 0 0 0 .043-.143l.018-.147.007-.127.003-.252c0-.292.26-.529.579-.529.263 0 .489.162.558.395l.016.071.004.063v.033c0 .202-.015.384-.044.546-.03.168-.082.326-.155.474a1.173 1.173 0 0 1-.31.392 1.39 1.39 0 0 1-.482.243c-.188.056-.4.083-.64.083-.256 0-.485-.031-.685-.095a1.436 1.436 0 0 1-.508-.271 1.321 1.321 0 0 1-.322-.422 1.83 1.83 0 0 1-.165-.505 2.919 2.919 0 0 1-.032-.27l-.008-.147-.003-.15v-1.777c0-.222.015-.421.045-.597.031-.182.086-.353.164-.512a1.23 1.23 0 0 1 .327-.419 1.44 1.44 0 0 1 .508-.256c.198-.059.424-.089.68-.089Zm5.202.406c-.31-.241-.774-.357-1.394-.357h-.795l-.07.004-.073.015c-.237.061-.402.254-.402.48v4.36l.004.066.015.068c.069.243.304.414.58.414l.07-.004.086-.015.076-.025.071-.033a.539.539 0 0 0 .295-.471v-1.813h.252l.596 1.89.028.073.044.078c.13.198.36.32.612.32.271 0 .491-.201.491-.45l-.004-.054-.006-.036-.66-2.064.099-.052c.373-.225.558-.643.558-1.231 0-.523-.155-.915-.473-1.163Zm-9.43.517a.877.877 0 0 0-.304.044.261.261 0 0 0-.132.106.644.644 0 0 0-.084.219 1.42 1.42 0 0 0-.02.153l-.004.089-.002.105v2.2l.002.107c.003.098.011.182.024.251a.677.677 0 0 0 .085.227.273.273 0 0 0 .134.114c.073.03.174.047.3.047a.795.795 0 0 0 .3-.047.277.277 0 0 0 .136-.114.677.677 0 0 0 .085-.227 1.45 1.45 0 0 0 .019-.157l.005-.092.002-.106v-2.2l-.002-.106a1.63 1.63 0 0 0-.024-.244.644.644 0 0 0-.084-.219.261.261 0 0 0-.132-.106.877.877 0 0 0-.304-.044Zm7.893.006h.14l.108.002.096.007c.183.017.305.059.365.117.084.082.134.254.134.514 0 .265-.056.435-.152.514l-.043.03c-.111.065-.297.102-.556.102h-.092v-1.286Z" fill="#8FBC5D"/><path d="M71.008 359C79.768 359 87 351.768 87 343.008 87 334.232 79.752 327 70.992 327 62.232 327 55 334.232 55 343.008 55 351.768 62.232 359 71.008 359Z" fill="#E5322D"/><path d="M71.008 345.446c-3.039-.016-5.395-2.568-5.395-5.9-.017-3.152 2.372-5.785 5.395-5.785 3.007 0 5.38 2.633 5.38 5.785 0 3.332-2.34 5.932-5.38 5.9ZM71.009 356.172c-3.397 0-7.07-1.414-9.378-3.917l.033-.195c1.511-1.982 4.762-3.933 9.345-3.933 4.583 0 7.817 1.951 9.328 3.933l.033.195c-2.292 2.503-5.965 3.917-9.361 3.917Z" fill="#fff"/><path d="M34.8 408.583c0-.322.269-.583.6-.583h13.2c.331 0 .6.261.6.583a.592.592 0 0 1-.6.584h-.834l2.19 5.224c.029.07.044.145.044.22 0 1.504-1.254 2.722-2.8 2.722-1.546 0-2.8-1.218-2.8-2.722 0-.075.015-.15.044-.22l2.19-5.224H42.6v9.333h3.2c.994 0 1.8.784 1.8 1.75s-.806 1.75-1.8 1.75h-7.598c-.994 0-1.8-.784-1.8-1.75s.806-1.75 1.8-1.75H41.4v-9.333h-4.034l2.19 5.224c.029.07.044.145.044.22 0 1.504-1.254 2.722-2.8 2.722-1.546 0-2.8-1.218-2.8-2.722 0-.075.015-.15.044-.22l2.19-5.224H35.4a.592.592 0 0 1-.6-.584Zm2.802 11.667c0 .322.269.583.6.583H45.8c.331 0 .6-.261.6-.583a.592.592 0 0 0-.6-.583h-7.598c-.331 0-.6.261-.6.583Zm.682-5.056h-2.968a1.6 1.6 0 0 0 1.484.973 1.6 1.6 0 0 0 1.484-.973Zm-.176-1.166-1.308-3.121-1.308 3.121h2.616Zm9.092 2.139a1.6 1.6 0 0 0 1.484-.973h-2.968a1.6 1.6 0 0 0 1.484.973Zm-1.308-2.139h2.616l-1.308-3.121-1.308 3.121Z" fill="#E5322D"/><path d="M8.205 730h13.59c1.114 0 1.519.116 1.926.334.407.218.727.538.945.945.218.407.334.811.334 1.926v13.59c0 1.115-.116 1.519-.334 1.926a2.275 2.275 0 0 1-.945.945c-.407.218-.811.334-1.926.334H8.205c-1.115 0-1.519-.116-1.926-.334a2.275 2.275 0 0 1-.945-.945c-.218-.407-.334-.811-.334-1.926v-13.59c0-1.115.116-1.519.334-1.926.218-.407.538-.727.945-.945.407-.218.811-.334 1.926-.334Z" fill="#4A7AAB"/><path d="M8.333 735.417c0-.461.373-.834.834-.834h4.166c.46 0 .834.373.834.834v9.166a.833.833 0 0 1-.834.834H9.167a.833.833 0 0 1-.834-.834v-9.166Z" fill="#BCD1E6"/><path d="M15.833 735.417c0-.461.373-.834.834-.834h4.166c.46 0 .834.373.834.834v9.166a.833.833 0 0 1-.834.834h-4.166a.833.833 0 0 1-.834-.834v-9.166Z" fill="#E8EDF3"/><path d="M9.167 737.5c0-.46.373-.833.833-.833h2.5c.46 0 .833.373.833.833v2.5c0 .46-.373.833-.833.833H10a.833.833 0 0 1-.833-.833v-2.5ZM16.667 740c0-.46.373-.833.833-.833H20c.46 0 .833.373.833.833v2.5c0 .46-.373.833-.833.833h-2.5a.833.833 0 0 1-.833-.833V740Z" fill="#4A7AAB"/><path fill-rule="evenodd" clip-rule="evenodd" d="M9.167 742.5c0-.345.28-.625.625-.625h2.916a.625.625 0 0 1 0 1.25H9.792a.625.625 0 0 1-.625-.625ZM16.667 737.5c0-.345.28-.625.625-.625h2.916a.625.625 0 0 1 0 1.25h-2.916a.625.625 0 0 1-.625-.625Z" fill="#4A7AAB"/><path d="M8.205 755h13.59c1.114 0 1.519.116 1.926.334.407.218.727.538.945.945.218.407.334.811.334 1.926v13.59c0 1.115-.116 1.519-.334 1.926a2.275 2.275 0 0 1-.945.945c-.407.218-.811.334-1.926.334H8.205c-1.115 0-1.519-.116-1.926-.334a2.275 2.275 0 0 1-.945-.945c-.218-.407-.334-.811-.334-1.926v-13.59c0-1.115.116-1.519.334-1.926.218-.407.538-.727.945-.945.407-.218.811-.334 1.926-.334Z" fill="#4A7AAB"/><path d="M9.167 760.151c0-.544.435-.984.972-.984h9.722c.537 0 .972.44.972.984v3.746a.978.978 0 0 1-.972.984H10.14a.978.978 0 0 1-.972-.984v-3.746Z" fill="#fff"/><g fill-rule="evenodd" clip-rule="evenodd" fill="#4A7AAB"><path d="M13.469 760.575c.18-.18.472-.18.652 0l2.307 2.305a.46.46 0 1 1-.652.652l-2.307-2.305a.46.46 0 0 1 0-.652Z"/><path d="M16.428 760.575a.462.462 0 0 0-.652 0l-2.307 2.305a.46.46 0 1 0 .652.652l2.307-2.305a.46.46 0 0 0 0-.652Z"/></g><path fill-rule="evenodd" clip-rule="evenodd" d="M9.167 767.262c0-.394.32-.714.714-.714h10a.714.714 0 0 1 0 1.428h-10a.714.714 0 0 1-.714-.714ZM9.167 770.357c0-.394.32-.714.714-.714h5.238a.714.714 0 0 1 0 1.428H9.881a.714.714 0 0 1-.714-.714Z" fill="#E8EDF3"/><g fill-rule="evenodd" clip-rule="evenodd" fill="#E5322D"><path d="M39.807 582.013a1.47 1.47 0 0 1 .386 0c.147.02.285.068.42.116l.032.011 4.292 1.503.092.032c.51.178.905.316 1.209.566.269.222.48.505.612.828.151.369.15.784.15 1.285v3.672c0 2.077-1.209 3.809-2.52 5.085-1.323 1.286-2.838 2.196-3.639 2.633l-.03.015c-.15.083-.313.172-.528.215a1.544 1.544 0 0 1-.566 0c-.215-.043-.377-.132-.529-.215l-.029-.015c-.801-.437-2.316-1.347-3.638-2.633-1.312-1.276-2.52-3.008-2.52-5.085v-3.672c-.002-.501-.002-.916.149-1.285.131-.323.343-.606.612-.828.304-.25.7-.388 1.21-.566l.09-.032 4.294-1.503.031-.011c.135-.048.273-.096.42-.116Zm.229 1.192a.286.286 0 0 0-.072 0c-.012.001-.03.005-.22.071l-4.292 1.503c-.645.226-.82.296-.939.395a.89.89 0 0 0-.264.352c-.049.121-.06.275-.06.925v3.575c0 1.593.935 3.031 2.157 4.219 1.21 1.178 2.619 2.027 3.377 2.44.095.052.141.076.177.093.026.012.036.014.048.017l.014.001a.405.405 0 0 0 .076 0l.014-.001c.012-.003.022-.005.048-.017.036-.017.082-.041.177-.093.758-.413 2.166-1.262 3.377-2.44 1.222-1.188 2.156-2.626 2.156-4.219v-3.575c0-.65-.01-.804-.06-.925a.89.89 0 0 0-.263-.352c-.12-.099-.294-.169-.939-.395l-4.293-1.503a1.461 1.461 0 0 0-.22-.071Z"/><path d="M43.032 587.421a.606.606 0 0 1 0 .85l-3.328 3.365a.595.595 0 0 1-.841 0l-1.48-1.496a.605.605 0 0 1 0-.85.59.59 0 0 1 .841 0l1.06 1.07 2.907-2.939a.59.59 0 0 1 .841 0Z"/></g><defs><clipPath id="a"><path fill="#fff" transform="translate(55 5)" d="M0 0h24v18H0z"/></clipPath><clipPath id="d"><path fill="#fff" transform="translate(5 55)" d="M0 0h20v20H0z"/></clipPath></defs></svg>